<?xml version="1.0" encoding="UTF-8"?>
<svg id="Layer_1" data-name="Layer 1" xmlns="http://www.w3.org/2000/svg" version="1.1" viewBox="0 0 217.2 138.4">
  <defs>
    <style>
      .cls-1 {
        fill: #080707;
      }

      .cls-1, .cls-2, .cls-3 {
        stroke-width: 0px;
      }

      .cls-2 {
        fill: #fefefe;
      }

      .cls-3 {
        fill: #b0b0b0;
      }
    </style>
  </defs>
  <path class="cls-1" d="M88.6,120.8c-.8-.1-1.5-.4-2-1-.4-.5-1-.7-1.5-1.1-1.9-1.4-3.4-3.1-4.4-5.2-.5-1-.8-2-1.3-3.1-.7-.6-1-1.1-.9-2.1,0-1.2-.7-2.4-.5-3.7,0-.4-.4-.3-.7-.3-.9,0-1.8-.2-2.7-.2-1.4,0-2.9,0-3.4,1.8-.4,1.4-2,2.1-2,3.7,0,.3-.4.5-.7.6-.5.2-.5.6-.5,1-.5.3-.8.7-1.5.8-.2,0-.5.2-.5.3-1.6,4.4-5.6,4.6-9.3,4.9-4.5.4-8.8-.7-12.6-3.2-1.8-1.2-3.1-2.7-4.2-4.6-.7-1.2-1.3-2.5-1.8-3.7-.7-1.7-.6-3.7-.4-5.6.2-1.4.8-2.8.9-4.2,0-1.1.7-1.9,1.4-2.5.5-.5.8-.9,1-1.6.3-1.3,1.2-2.2,2.5-2.7.5-.2.9-.5,1.3-.8,1.1-.9,2-2.1,3.7-1.9.1,0,.4,0,.5-.2,1.2-1.1,2.8-1.3,4.4-1.5.9,0,1-.4.8-1.2-.4-1.3-.6-2.6-.9-4-.3-1,0-1.8.9-2.3.6-.3.7-.7.7-1.2,0-.8,0-1.7,0-2.5.2-1.9,1.7-3,2.7-4.5.2-.3.8-.4,1.1-.3,1.4.2,2.2-.6,3-1.5.6-.7,1.3-.9,2.1-1,3.1-.4,6.2-1,9.4-1.2,2.2-.1,3.8-1.1,5.3-2.6,4.5-4.3,9.2-8.3,14.2-12,.4-.3,1.1-.5.7-1.3-.2-.4.3-.5.6-.7.9-.6,2-.7,3.1-.9,8.9-1.6,17.9-2.7,26.9-3.4,3.8-.3,7.5.4,11.2,1.2,4.9,1.1,9.6,2.4,14.3,4.2,1.2.5,2.3,1,3.5,1.5,2,.7,3,2.2,4,4,2.4,4.6,4.4,9.3,7.4,13.6.5.8,1.1,1.1,2.1,1.2,1.4,0,2.9.4,4.3.7,1,.2,1.5,1,1.3,2-.6,3-1.1,6-4.3,7.6-2.8,1.4-4.4,3.6-4.8,6.8,0,.8-.6,1.6-.6,2.5.5.3.8,0,1.1-.2,3.8-1.1,7.6-1.1,10.9,1.3,2.6,1.9,4.2,4.5,4.5,7.9.1,1.4,0,2.8.3,4.1.2,1.9-.4,3.8-1,5.7-.4.9-.9,1.8-1.3,2.6-1.4,2.7-3.4,4.6-6.7,4.4-1.4,0-2.9,0-4.3,0-3.2,0-6-.8-7.6-4,0-1.5-1.3-2.5-1.4-4.1,0-.7-.8-1.5-.9-2.5,0-.4-.5-.3-.7-.3h-12.3c-.7,0-1,.2-1,.9,0,.2,0,.4,0,.5-1.2,1.4-1.2,3.7-3.2,4.5-1.4,1.6-3.2,2.3-5.3,2.3-1.3,0-2.7,0-4,0-2.8.3-4.8-1.1-6.6-2.9-.5-.9-.9-1.8-1.4-2.6-.2-.3-.4-.6-.4-.9.2-1.5-.7-1.7-1.9-1.7-1.3,0-2.5-.2-3.8-.2-.5,0-1.2-.4-1.4,0-.3.7-1.1,1.3-1,2,.2,1.1,0,2-.7,2.8,0,0,0,.4.1.6,0,.7-.3,1.4-1,1.7-.5.3-.6.8-.7,1.4-.5,1.7-1.4,3-3,3.8-.2,0-.5.2-.5.3-.5,1.4-1.8,1.7-2.8,2.5-2.2,1.5-4.6,1.9-7.1,2.1-.2,0-.5,0-.7.1-.8,0-1.6,0-2.4,0-1.8-.3-3.6-.7-5.4-.9h0ZM75.8,81.8c2.3,0,1.8,1.5,1.9,2.7,0,.6.2,1.2.3,1.8h.3c0-.8,0-1.7,0-2.5-.1-1.2.2-2.2,1.2-3,.2-.2.4-.4.5-.7,0,0,.2-.2.2-.3,0-.2-.3-.1-.4,0-1.3.5-2.6,1.1-4,1.9h0ZM77.8,72.2c-.2-1.1-.9-.7-1.6-.7.6,1.4,1.4,2.4,2.6,3.2,0,0,.2.1.3.2,1.4.5,5.4-1.3,6.1-2.7-1.4.4-2.8.8-4.2,1.2-.8.2-1.7.5-2.4-.3.2-.4.5,0,.7,0,.4,0,.4-.4.4-.6,0-.2,0-.5-.2-.5-.3,0-.5.1-.7.4-.2.2.3.7-.3.8-.5,0-.8-.5-.9-.7h0ZM148.1,68.3h0c-.2-.2-.4-.5-.7-.6-1.3-.4-2.3-1.1-3.2-2.1-.6-.7-1.6-.6-2.4-.5-1.8.3-3.3,1.1-4.7,2.3,2.2-.4,4.4-1.7,6.8-.7-.5.7-1.3.5-1.8,1.1,2.1-.5,4.1-.5,6,.3h0s0,0,0,0ZM169.8,102.1c.2,0,.1.3.2.5.2.7.7,1.1,1.4,1s.7-.7.7-1.3c0-.8-.4-1.3-1.1-1.3-.6,0-1.1.1-1.9.3.5-.7-.1-1.8,1.5-1.7.9,0,2-.9,2.6-1.9.2-.3.5-.9,0-1.1-.5-.2-.9,0-1,.6-.2.6-.6,1.1-1.1,1.4-.6-1.5,1.2-2.9,2.9-2.1.6.3,1.2.7,1.9,1.1-1.3-2.6-4.3-2.1-5.5-.6-1.2,1.5-1.7,3.2-1.9,5-.3,2.3-.2,4.5.8,6.6.6,1.2,1.5,1.9,2.8,1.9,1,0,2-.3,2.4-1.2.4-.9,1-1.8,1.3-2.7.4-1,.7-2.1.7-3.2-.4,0-.5.2-.7.4-1,1.1-2.2,1.4-3.5.8-.2,0-.3-.2-.5-.2-.4,0-.9-.3-1.1,0-.3.6.4.6.7.8.8.5,1.7,1,2.4,1.7.2.3.5.6.3.9-.3.4-.5-.1-.7-.1-1.3,0-1.9-.9-2.5-1.9-.2-.2-.4-1.1-1.1-.4,0,0-.1.1-.2.2-1-1.2-.8-2.4.4-3.4h0ZM114.7,84.5c-.2,0-.2-.1-.2-.3-.9-3.3-1.7-6.5-2.6-9.7-.3-.9,0-1.3.9-1.3.2,0,.3,0,.5,0,2.3-.5,2.9-.2,3.6,2.1.2.7,0,1.3-.4,1.7-2.1,1.9-1.9,4.1-.6,6.5.8-1.8,1.4-3.6,2.3-5.2.8-1.5.6-2.8-.2-4.2-1-1.7-1.8-3.5-2.7-5.2-.6-1.1-1.2-1.6-2.6-1.7-5.7-.5-11.5-.7-17.2-.7-5.2,0-10.3.7-15.4,1.8-.2,0-.5,0-.7.4,1,0,2,0,2.9-.2,1.5-.4,2.9-.3,4.4-.4,1,0,3.1,1.7,3.3,2.7,0,.4-.1.6-.4.7-.4.3-.9.6-1.3,1,2.1-.7,4.3-.5,6.5-.7,3.9-.3,7.9-.3,11.8-.4,1.5,0,2.7.7,3.3,2.1,1.4,3.3,2.8,6.7,4.1,10,.1.3.3.6.4.9,0,0,0,.2.1.3h0ZM131,86.5c-3.5,2.2-7.2,4.3-10.9,6.2-.5.2-1.1.4-.8,1.1.3.8.9.6,1.4.4,3.2-1.4,6.3-2.8,9.4-4.2,2.7-1.2,5.3-2.4,8-3.5,2.5-1,3.7-3,3.9-5.5.2-3.4.1-6.7.2-10.1,0-.6-.2-.7-.8-.7-6.6.5-13.2.9-19.8,1.3-1.3,0-2.6.4-3.4-1.2.2,1.8.9,2.8,2.4,3.1.9.2,1,.6.7,1.3-1.6,3.5-3.1,7.1-4.7,10.9,2.3-1,4.4-1.9,6.5-2.8,5.4-2.3,10.8-4.6,16.1-6.9.3-.1.7-.5,1-.1s-.2.7-.4.9c-1.6,2.1-3.5,3.7-5.8,4.9-5.2,2.7-10.4,5.4-15.6,8.1-.8.4-.9.8-.5,1.5.4.8.9.3,1.3.1,2.9-1.4,5.7-3,8.6-4.3s2.8-1.5,4.2-2.1c.3-.1.6-.4,1,0-.6.8-1.5,1.2-2.2,1.7h0ZM91.2,111.2c2.1,3,6.6,4.3,10.4,1.9,4.8-3.1,6.6-9.6,4.1-14.5-2.5-4.8-8-6-12.3-2.6-2.7,2.2-4.2,5.6-4.2,9.6,0,1.9.7,3.9,2,5.7h0ZM96.2,51.5c-.9.2-1.7.7-2.5,1.3-3.9,2.7-7.4,5.9-10.8,9.1-.5.4-.9.7-1.4,1.2-.3.2-.6.5-.5.9.2.5.7.3,1,.2,3.5-.2,7.1-.5,10.7-.7,2.3-.2,4.7-.2,7-.6,3.4-.6,6.5-1.9,8.9-4.6,1.4-1.7,3.1-3.1,4.9-4.8-5.9-1.6-11.5-2.8-17.3-2h0ZM126,46c5.9-.2,11.5,1.5,17,3.3,2,.7,3.9,1.4,5.9,2.1.2,0,.5,0,.5.4,0,1.6.9,2.9,1.6,4.2.8,1.7.9,3.3.5,5-.4,1.6-.8,3.1-1.1,4.7,0,.3-.4.7.2.9.5.2.6-.2.7-.6.8-2.8,1.6-5.5,2.4-8.3,0-.3.2-.7,0-.9-.5-.4-.4.2-.5.3-.3.2-.4,0-.5-.2-.6-1.3-1.2-2.7-1.8-4.1-.3-.6,0-.7.6-.6,1.5.4,2.7,1.1,3.4,2.6,1.6,3.2,3.3,6.3,4.9,9.5.4.7.7,1.4,1.6,2,0-.7-.4-1-.6-1.4-1.7-3.4-3.4-6.8-5.1-10.1-.7-1.3-1.6-2.2-3-2.8-6.6-2.6-13.3-5.1-20.3-6.3-1.9-.3-3.7-.5-5.6-.4-.4,0-.9,0-1.3.3.2.3.4.4.7.4h0ZM122,55.2c-1,.2-1.5.7-1.4,1.8h0c0,1.1-.2,2.2.2,2.9.5.7,1.7.1,2.5.2,2.8.2,3.6.9,4.2,4.1.1.6,0,1.4,1.1,1.4s1.8,0,1.4-1.4c-.2-.7-.2-1.6-.4-2.4-.3-1.2-.7-2.1-2.1-2.2-.4,0-.7-.2-.8-.7,0-.5.3-.7.6-.9,1.5-1.4,3.4-2.4,5.1-3.4,1.2-.7,2.9-.6,4.4-.8-5,.3-10,.6-15,1.4h0ZM142,57.1c.6,1.3,1.2,2.5,2.4,3.4.8.6,1.1,1.7,1.2,2.8,0,.7.4,1,1.2.9,2.7-.3,2.6-.3,3.4-2.9,1-3.1-.6-5.6-1.8-8.2,0-.3-.4-.3-.6-.3-3.3.3-6.6.6-9.9.8,0,0-.2,0-.3.1,2,.5,3.6,1.5,4.4,3.3h0ZM112.8,65.7c.6,0,1.1.1,1.7.1.9,0,1.6-.3,2-1.1,1.2-2.2,2.3-4.4,2-7,0-.5,0-1,0-1.5,0-.7,0-1.3-.9-1.6-.8-.3-1.4-.3-2,.4-3,3.1-6.1,6.1-9.2,9.1-.2.2-.4.5-.7.8,2.5.5,4.8.5,7.1.7h0ZM121,48c-4.5,3.4-8.6,7.2-12.5,11.3-2.8,2.9-6.2,4.2-10.1,4.5-5.4.4-10.9.7-16.3,1-.7,0-1.3.2-2-.5.2.8.6.8,1,.7,6.1-.3,12.1-.5,18.2-.8,1.4,0,2.8-.5,4.2-1,.4-.1.7-.5,1.1-.2,0,.7-.7,1-.7,1.7,6.5-6.4,12.8-13.2,20.6-18.3-1.4.1-2.4.9-3.4,1.6h0ZM145,92.3c.7.5.9.9.2,1.7-.7.7-1.1,1.6-1.6,2.3-.7,1.1-1.8,1.6-3.1,1.7-6.4.2-12.8.5-19.2.7h-.1c-.5.2-1.4-.2-1.5.5,0,.6.8.8,1.3,1.2.1,0,.4.2.4,0,.2-1.3,1.3-.7,1.9-.7,6.4-.2,12.7-.4,19.1-.6,1.3,0,2.2-.6,2.9-1.6s1.2-2,1.8-3.1c.5-.8.4-1.5-.3-2.2-.8-.7-1.5-1.4-2.4-2.3-.4,1.1,0,1.8.7,2.3h0ZM65.3,101.4c-.7-.7-1.4-.9-2.4-.4-2.2,1-4.4,1.8-6.6,2.7-.2,0-.5.2-.7.3-.4.4-1.3.6-1.1,1.1.2.5.9.3,1.5.2,3.6-.6,7.1-1.2,10.7-1.9,1.9-.3,3.7-.7,5.7-1-1-.4-1.9-.2-2.8,0-3.5.6-7,1.3-10.5,1.9-.3,0-.6.2-1.1-.2,2.5-.9,4.8-1.8,7.2-2.7h0ZM116.4,45.9c-6.7.7-13.4,1.5-20.1,2.6-.2,0-.3,0-.5,0-.4,0-1,0-1,.5,0,.7.7.2,1,.1,8.2-1.1,16.5-2.3,24.8-3,.8,0,1.5-.2,2.3-.9-2.3.2-4.5.4-6.5.7h0ZM119.1,54.2c.8,2,0,4.3.3,6.6.6-.1.5-.6.5-1,0-.9,0-1.7,0-2.6,0-2.1.4-2.5,2.4-2.8,4.9-.7,10-1.2,14.9-1.6,3.4-.3,6.9-.5,10.3-.7-9.6-.2-19.1,1.3-28.4,2.1h0ZM136.8,57.8c.4,0,.7.2,1.1.2.7,0,1.3-.2,1.6-.8.2-.5-.6-.7-.8-1.1-.7-1.4-2-1.6-3.3-1.4-1.4.2-3,0-4.1,1.3-.5.6-1.3.9-1.8,1.2,2.5,0,4.9,0,7.4.5h0ZM155.3,58.2c-.1-.3-.3-.6-.6-.5-.3,0-.3.4-.4.6-.5,1.8-1,3.6-1.5,5.4-.2.6,0,.8.6.9,1.8.4,3.5.8,5.6,1.2-1.3-2.7-2.4-5.2-3.6-7.6h0ZM74.1,79.2c-2,0-2.3-1.4-2.8-2.8-.4-1.1-.8-2.1-1.2-3.2-.4-1-1.1-1.5-2.2-1.4-3.4,0-6.8.2-10.2.3-.2,0-.5,0-.7.2-.3,0-.6.3-.5.6,0,.4.5.1.7,0,3.5-.3,7-.4,10.5-.3.7,0,1.1.5,1.2,1.2.2,1.1.5,2.2.7,3.4.3,1.3,1.4,2.7-.4,4,1.8-.4,3.2-1,4.8-1.9h0ZM141.7,63.1c.7-.4.4-1.2.4-1.8,0-2.4-.7-2.8-2.7-1.5-1.1.7-1.7,1.9-2,3.2-.2.8.2.6.6.4.6-.3,1.1-.6,1.6-.9.2,0,.4-.2.6,0s0,.4-.2.5c-.4.3-.6.7-1.1,1,1.1.2,2-.3,2.9-.7h0ZM158.8,75c-.5.5-.8,1-1.1,1.6-3.1,6.4-6.2,12.8-9.4,19.2-.2.5-.5.9-.2,1.6.6-.5,1-1.2,1.3-1.9,2.9-6,5.8-12,8.7-17.9.5-1,.9-2.1,2.1-2.9-.7-.3-1,0-1.3.2h0ZM77.2,65c1.6-.2,2.2-1.2,3-2,3.7-3.9,7.8-7.2,12.1-10.5.8-.6,1.9-.8,2.2-2-6.2,4.1-11.7,9-17.3,14.4h0ZM148.8,76.2c.7.2-.5,1.2.5,1,.7-.1,1.2-1,.8-1.6-.7-1.1.4-1.3.7-1.9.4-.6.9,0,1.3,0,.7.2,1.5.7,2.6.4-1.4-.9-2.7-1.8-3.9-2.6-.4-.3-.6,0-.8.3-.3.5-.5.9-.8,1.4-.2.4-.4.7-.9.4-.8-.4-1,.6-.9.7.6,1.1-.3,2-.2,3,0,0,0,.2.1.3.7-.4.9-1.2,1.5-1.5h0ZM131.9,61.9c.2-.7.7-.8,1.2-.4,1.1.8,2.5.5,3.3-.6.4-.6-.1-1.5-.9-1.5-.8,0-1.7,0-2.4,0-2.4.3-2.8,1-1.5,3.5.2-.5.2-.7.3-1h0ZM134.9,91.6c-5.7,2-11.4,4-17,6.1-.2,0-.3.2-.4.5,1.2-.4,2.4-.7,3.6-1.1,4.5-1.4,9.1-2.8,13.6-4.3.6-.2.9,0,1.3.4.4-1.9.3-2-1.2-1.6h0ZM147.1,70.9c.2-.3,0-.5-.3-.6-2-.6-3,.3-3,2.3s0,1.4,0,2.1c-.2.7.3,1.3.1,2,.1,0,.2,0,.4,0,1-2,2-3.9,2.9-5.9h0ZM149.5,102.6c0,.4.5.4.8.4,1.2,0,2.5,0,3.7,0,.9,0,1-.4,1-1.1,0-.8-.4-.8-1-.8h-6.2c.8.5,1.9.3,1.7,1.5h0ZM155.6,68.5c1.8.2,3.6.4,5.6.8-.4-.8-1.1-1.1-1.7-1.3-1.9-.5-3.8-.8-5.8-1.3-.6-.1-1,0-.6.7l1,2c0,0,.2,0,.3,0,0-1.1.5-1,1.2-.9h0ZM159.7,71.9c2.1-.4,4.3-.4,6.5-.3h2c-1-1.2-9.1-.9-11.5-.3.9.8,1.8.9,2.9.7h0ZM114.2,52.1c-3.4-1.1-6.9-1.9-10.5-1.9,3.5.4,7,1.3,10.5,1.9ZM173.2,99.6c.3-.2.6-.3.8,0,.5.7.8.1,1-.2.4-.5.3-1,0-1.4-.4-.4-.7,0-.9.3-.8.8-2,1.3-2.8,2.1.6-.3,1.2-.6,1.9-.9h0ZM176.1,101.5c-1,.6-2.2,0-3.3.5,1.6.9,3.2.7,3.3-.5ZM132.5,65.4c-.4-.3-.9-.7-1.3-.3-.4.3,0,.8.2,1.2,0,.3,0,.6.4.7.4,0,.4-.3.4-.6,0-.6.5-.4.9-.6-.3-.2-.5-.3-.6-.4h0ZM72.1,67.8c.3.2.6-.6,1-.8.2,0,.2-.3,0-.4-.3-.3-.6,0-.9,0-1,0-2,.5-3.1.5.9.6,2,0,2.9.7h0ZM55.1,80.3c-.2.3-.3.6,0,.7.3.2.4,0,.6-.2.5-.5.6-1,.2-1.8-.4.5-.6.9-.9,1.3h0ZM84.1,71.3c0-.3.2-.7-.3-.6-.3,0-.6.3-.6.7,0,.3.3.5.6.5.5,0,.4-.3.4-.6h0ZM102.6,50.2h0s-.7,0-.7,0h0s.7,0,.7,0ZM118.3,53.8h0s0,0,0,0h.1,0Z"/>
  <path class="cls-3" d="M122.7,109.9c1.8,1.8,3.8,3.2,6.6,2.9,1.3-.1,2.7,0,4,0,2.1,0,3.9-.7,5.3-2.3,5.7.3,11.4.6,17.1,1.2.8,0,1.8.5,2.6-.3,1.6,3.2,4.4,4,7.6,4,1.4,0,2.9,0,4.3,0,3.3.2,5.3-1.6,6.7-4.4.5-.9,1-1.7,1.3-2.6.7-1.9,1.2-3.7,1-5.7-.1-1.4-.1-2.8-.3-4.1-.3-3.4-1.9-6.1-4.5-7.9-3.3-2.4-7.1-2.4-10.9-1.3-.4,0-.7.5-1.1.2,0-.9.5-1.7.6-2.5.3-3.2,2-5.4,4.8-6.8,3.1-1.6,3.7-4.6,4.3-7.6.2-1-.4-1.8-1.3-2-1.4-.3-2.9-.6-4.3-.7-1,0-1.6-.5-2.1-1.2-3-4.3-5-9.1-7.4-13.6-.9-1.8-2-3.3-4-4-1.2-.4-2.3-1-3.5-1.5-4.6-1.8-9.4-3.1-14.3-4.2-3.7-.8-7.4-1.5-11.2-1.2-9,.7-18,1.8-26.9,3.4-1,.2-2.1.3-3.1.9-.3.2-.7.3-.6.7.3.8-.3,1-.7,1.3-5,3.7-9.7,7.7-14.2,12-1.5,1.4-3.1,2.4-5.3,2.6-3.2.2-6.3.8-9.4,1.2-.8,0-1.6.3-2.1,1-.7.9-1.6,1.7-3,1.5-.4,0-1,0-1.1.3-.9,1.5-2.5,2.6-2.7,4.5,0,.8,0,1.6,0,2.5,0,.5,0,.9-.7,1.2-1,.5-1.1,1.3-.9,2.3.4,1.3.6,2.7.9,4,.2.8.1,1.1-.8,1.2-1.5.2-3.1.4-4.4,1.5,0,0-.3.2-.5.2-1.7-.2-2.6,1-3.7,1.9-.4.3-.8.6-1.3.8-1.2.5-2.2,1.4-2.5,2.7-.2.7-.5,1.2-1,1.6-.7.7-1.3,1.4-1.4,2.5,0,1.4-.7,2.8-.9,4.2-.2,1.9-.4,3.9.4,5.6.5,1.2,1.1,2.5,1.8,3.7,1.1,1.9,2.4,3.4,4.2,4.6,3.8,2.5,8.1,3.6,12.6,3.2,3.7-.3,7.7-.5,9.3-4.9,0-.1.3-.3.5-.3.6,0,1-.5,1.5-.8,3.8-.4,7.6-.5,11.5-.7.5,1,.8,2,1.3,3.1,1,2.2,2.6,3.8,4.4,5.2.5.4,1.1.6,1.5,1.1.6.7,1.2.9,2,1,1.8.3,3.6.7,5.4.9-.3.4-.8.2-1.2.2-2.5,0-5,0-7.5-.2-3.6-.2-7.1-.3-10.7-.5-7.5-.4-15.1-1-22.6-2-2-.3-4-1.1-6.1-.9-1.2-1.3-1.9,0-2.8.5-.6.4-1.2.9-1.8,1.3-.2.2-.5.4-.8,0,.8-.7,1.6-1.3,2.4-2,.3-.2.8-.4.6-.8-.2-.4-.7-.6-1.1-.8-.5-.3-.6.2-.8.5-.4.6-.8,1.2-1.7.7-.3-.2-.6,0-.8.2-.3.2-.5.4-.7,0-.5-.8-.9-.2-1.3,0-.4.3-.6.8-1.3.8.3-.7.7-1.2,1.2-1.7.7-.8,0-1.1-.6-1.5.6-.6,1.4,0,2.1-.7-1-.4-1.8-.2-2.6-.2-.5,0-.7,0-.6-.7.2-1.3-1.3-2.7-2.5-2.4-1.4.3-2.5-.4-4-.7,1.1-.3,2,.4,3.1,0-1.3-.2-2.4-.5-3.6-.7,1-1.2,2.1,0,3.3-.5-1.6-.7-3.3-.4-4.7-1.2,1-.5,1.9.3,2.7,0-.4-.6-1.3-.4-1.9-1.1,1.3.3,2-1.3,3.3-.5-.2-.8-.6-1.3-1.1-1.2-1.3.1-1.6-1.5-2.9-1.4,0,0-.2-.2-.1-.3.2-.6-.2-.6-.6-.7-.3,0-.6,0-.7-.4,0-.1,0-.3.2-.4.3-.2.7-.2.9,0,.7,1,1.8.8,2.7,1.3.2,0,.5.3.7,0,.2-.3,0-.6-.2-.7-.4-.3-.8-.6-1.1-.9-.4-.5-1.2-.6-1.3-1.3h0c.5.2.9.4,1.3.6.9.5,1.7,1.3,2.8,1.4.1.2.3.3.5.2,0,0,0,0,.1.1h0c0,0,0,0,0,0,0-.2-.3-.3-.5-.3-.4-.5-.7-.9-1.4-1.1-.7-.1-1.8-1.4-2.1-2.3,2.1.9,3.8,2.8,6.2,3.1-2.8-3.4-6.3-6-9.2-9.1,1.8,1.2,3.4,2.7,5.1,4,1.7,1.3,3.1,3.1,5.3,3.7-.4-.8-.8-1.4-1.3-2-.5-.7-1.5-1.2-1-2.3,0,0,0,0,0,0h0s0,0-.1,0c0-1-1.2-1.5-1.2-2.7,1.8,1.5,2.7,3.5,4.3,5.1-.2-1.2.7-2.2.8-3.3.3-1.7,3.1-6.7,4.5-7.6,2.5-1.6,4.8-3.4,7.8-4.3,1-.3,2.6,0,2.9-1.2.3-1-.3-2.2-.7-3.3-.4-1.3-.1-2.4,1-3.2.7-.5.6-1.2.5-1.9,0-.7-.7-.5-1.2-.7-1.5-.4-3.1-.8-4.6-1.3.3-.3.5-.4.7-.4,1.6,0,3.1-.1,4.7-.5.8-.2.9-.6.3-1.1s-1.4-.9-1.7-1.8c.6,0,.9.3,1.3.4.6,0,1.1.9,1.5.3.3-.5-.3-1.2-.7-1.7-.4-.4-.8-.8-1.2-1.2-.6-.5-1.1-1-1.9-1.7.9,0,1.2.3,1.6.4,1.1.3,2.2,1.7,3.4,0h.1c0,.1.3.3.4,0,0-.2-.1-.2-.3-.2-.4-.8,0-1.3,1-1.5-1.1-1.2-2.5-.4-3.7-.7-1.3-.4-2.6-.6-3.9-.8,1.2-.4,2.3-.6,3.4-.8.9-.2,1.2-.8.8-1.7-.2-.5-.6-.8-.7-1.5,1.3,0,2.3.8,3.5.7.6,0,1.6.2.7-1-.3-.4-.3-1.1-.5-1.6-.4-.6-.2-.9.5-.8.9,0,1.8.4,2.7-.1-.3-.5-1.2-.5-1.2-1.2.6-.2,1.2,0,2-.8-1.2,0-2.1.6-2.6-.8-.6-1.6-.8-1.5.7-2.2,0,0,0-.1.1-.2-.8-.6-1.4-1.4-2.2-2.5.8.2,1.3.3,1.8.4.4,0,.9.3,1.2-.2.3-.5.1-.8-.2-1.2s-.4-.5-.3-.5c.9-1-.1-1.5-.6-2.4h2.2c.6,0,.7,0,.6-.8,0-.8-.4-1.9.6-2.5.4-.3.3-.6.5-1,.3-.7,0-1.8,1.2-2,.3,0,.2-.5.3-.8.3-2.4.5-4.9.9-7.3.2-.8.2-1.7.8-2.5.6,1.8.4,3.4.4,5s.5,3.7,1,5.6c.2.8,1,1,1.4,1.6.3-.9,1.3-.5,1.8-1,.5-.4.5-.5,0-.8-.8-.6-1.4-1.4-2.1-2.4,1.6.2,2.9,1,4.8.4-1.4-.2-.9-1.1-1.4-1.7-.3-.4-1-.7-.2-1.3.2-.2.4-1-.3-1.5-.3-.2-.6-.4-.6-1h2.8c.6,0,.9-.3.5-.8-.5-.7-.6-1.2.7-1.3-1-.9-1-1.7,0-2.2.3-.2.3-.5.4-.7.5-1-.3-2.5,1.4-2.9.3,0,.3-.6.3-.9.2-2.2.4-4.4.7-6.6.2-1.5.3-3,1.2-4.7.4,2.1.5,3.8.5,5.6s.5,4.3,1.2,6.4c.2.5.4,1,.9,1.3.6.4,1.1,1.2.5,1.9-.9,1-.4,1.3.6,1.4.7.1,1.6.4,1.6,1.3s-1,.9-1.7,1.1h-.3c-.3,0-.8-.1-.8.5s.2,1,.8,1c1,0,2,0,2.8-1,2.4-3.3,1.2-3,5.3-2.2.4,0,.8,0,1.2.2.8.2,1.4.2,2-.5.7-.7,1.4-1.1,2.4-1.1s1.2-.4,1.5-1c1.3-2,2.7-4,3.9-6.1.4-.7.8-.8,1.6-.7,1.6.3,3.3.8,5,.4,1.1-.3,1.8.2,2.4,1.2,1,1.8,2.1,3.4,3.2,5.1.7,1,1,2.3,2.2,2.9,1.2.6,2.5,1.1,3.7,1.7,1,.5,2,1,2.6-.6,0-.1.3-.2.4-.3,1.4-1,2.8-2,4.2-3,.3-.2.6-.6.8-.4,1.4.7,3.2.8,3.9,2.6,1,2.5,2.2,4.8,5,5.9.4.2.7.5,1.1.8,1.7,1.1,3.4,2,5.4,1.6-.3-1.2-1.5-2.1-1-3.4.5-1.1-.7-1.3-.8-2.2h2.8c.6,0,1-.1.5-.8-.7-.9.4-2,0-2.9,0,0,.1-.2.2-.3.8-.3.8-.9,1-1.6.2-.8-.1-2,1.3-2.2.3,0,.3-.5.4-.8.2-1.8.3-3.6.5-5.4.2-1.7.6-3.3.9-4.9,0-.2,0-.6.4-.6s.3.4.4.7c0,.8.3,1.7.2,2.6-.3,2.5.2,4.9.8,7.3.3.9.4,1.9,1.5,2.5.6.4.8,1.3.2,2-.8.8-.2,1,.5,1.2.4.1.9.2,1.3.4.4.3.6.6.6,1,0,.5-.4.7-.8.8-.3,0-.6.1-.8.2-.4,0-1.1-.2-1,.7,0,.7.6.9,1.2.9.4,0,.9-.2,1.2.2.4.7,1.1.6,1.7.6h1.9c.6,0,.4,0,.5.2,0,.2,0,.4-.2.5-1.7,1.2-2,3.5-3.7,4.7,0,0,0,.2,0,.4,1.1.4,2.2.1,3.4.2.4,0,.9-.3,1.1.3.1.4,0,.9-.3,1.3-.3.5-1,.7-1.5,1.2.5.3,1.2.5,1.3.1.3-.8,1.3-1.3,1.3-2.3,0-.7-.1-1.6,1.1-1.7.3,0,.3-.5.3-.7.3-2.5.5-5,1-7.5.2-.7.2-1.6.8-2.3.5,1.4.5,2.7.4,3.9,0,2,.2,3.9.7,5.8.2.7.3,1.4,1.1,1.8.4.2.7.8.4,1.2-.9,1.3.2,1.4,1,1.7.4.2.7.4.7.9,0,.5-.4.8-.9.9-.2,0-.5,0-.7.1-.2,0-.5,0-.5.4s.3.5.6.5c1.4,0,2.7.8,4.1.6.6-.1.8.3.4.7-.7.8-1.5,1.6-1.9,2.6-.2.5-1.2.8-.9,1.3.3.6,1.2.2,1.8.2h.1c.4,0,.9-.5,1.2.2.3.6,0,1.1-.5,1.6-.2.2-.6.2-.5.8h2.7c-.6.9-1.5,1.2-2,1.9.2.6,1,.1.9.7,0,.5-.7.3-1.1.3h-2.2c1.3,1,2.9.7,4.5,1.2-1.7.8-3.2,1.5-4.8,2.3,1,.8,2.2,1,3.5,1s1.6.2.9,1.4c-.5.9-.3,1.2.6,1.4.5.1.8.6.8,1.1,0,.6-.6.8-1.1.9-.4,0-.8,0-1.5.1,1.2.9,2.5,1.3,3.5,2.1h0c-.7,0-1.4-.2-2-.4-1.1-.3-2.1-.7-2.9.6.8.4,1.6.6,2.5.6s1.3.2,1.1.9c-.2.8.3.8.8,1.1.4.2.9,0,1.1.6,0,.5-.7.2-.8.8,1.1.5,2.1,1,3.5,1.6h-2.9c-.4,0-.6,0-.6.5,0,4.1-1.1,7.8-5,10-.4.2-.6.6-1,.7-2.1.9-2.4,2.9-2.9,4.7-.1.6,0,.9.7.7,1.5-.3,3-.3,4.4-.1,3.1.3,5.9,1.3,7.8,3.7,1.7,2.1,3.1,4.6,3.2,7.5,0,.8.1,1.7.4,2.6,1-2.7,2.8-4.6,4.8-6.9,0,1.1-.8,1.4-.7,2.1h0c-.2,0-.3,0-.3.3h0c0,1-.5,1.9-1.1,2.7-.6.7-1.1,1.3-1.4,2.2,3.6-2.3,6.9-5.1,10.2-7.7-3,3.2-6.5,5.8-9.3,9.2,2.3-.2,3.8-2.1,6-2.7-.7.8-1.1,1.8-2.3,2-.4,0-.7.5-.5.8.2.4.5,0,.8-.2,1.1-.6,2.1-1.4,3.3-1.9h0c0,.4-.3.5-.6.7-.6.5-1.2.9-1.8,1.5-.3.2-.7.5-.5.9.2.4.6,0,.9,0,.8-.4,1.9-.2,2.4-1.2.2-.4.7-.2,1,0,.2.1.3.5.1.5-.7.2-1.1,1.1-1.5,1.3-1.1.5-1.8,1.5-3,1.6-.3,0-.7.5-.9,1.1,1.4-.9,2.1.6,3.3.6-.4.5-1.1.2-1.3.8h1.3c.3,0,.8-.4.9.2,0,.4-.5.2-.8.3-1.2.3-2.4.2-3.8.9,2,0,3.2.2,3.4.5-1.2.2-2.5.2-3.9.6,1.1.5,1.9-.3,2.8,0-1,.5-2,.7-3.1.6-1.2,0-2.3,0-2.6,1.5,0,.4-.5.4-.8.6,0,.4.7.3.6.9h-2.7c-.2,0-.5.1-.5.3s.2.3.4.4c.5,0,1,0,1.8.3-1.6.4-1.1,1-.6,1.8.3.4.8.7.8,1.3-1-.3-1.7-1.8-2.9-.7,0,0-.4-.1-.5-.2-.2-.1-.5-.3-.7,0-.7.6-1,.1-1.4-.3-1-1.1-1.1-1.2-2.4,0,.9,1.2,2.4,1.8,3.2,3-1.5-.4-2.4-1.6-3.7-2.3-.5-.3-1.1-1-1.4.2,0,.4-.4.2-.6,0-.5-.3-.9-.2-1.4-.2-2.2.4-4.5.9-6.8,1.1-1.6,0-3.3.4-4.9.6-7.3.7-14.5,1.1-21.8,1.5-5.2.3-10.3.4-15.5.5-7.8,0-15.6,0-23.4,0s-.8.2-1.1-.4c.2,0,.5,0,.7-.1,2.5-.2,4.9-.6,7.1-2.1,1-.7,2.3-1.1,2.8-2.5,0-.2.3-.2.5-.3,1.6-.8,2.5-2.1,3-3.8.1-.5.2-1.1.7-1.4.7-.4.9-1,1-1.7h10.3l.2-.2ZM69,40c-.3-.2-.4-.8-.8-.5-.3.2-.6.6-.7,1,0,.5.5.4.8.5.4.2.8.4,1.3.7,0,1.1-.7,1.4-1.6,1.5-.2,0-.5,0-.6.3,0,.3,0,.6.3.6,1.4-.2,2.6,1.3,4,.3,0,0,0,0,0,0-.5-.5-1.7-.6-1.5-1.3,0-.6,1.2-.3,1.9-.6,0,0,.1,0,.3-.2-.5-.7-1-1-1.8-.7-.4.1-.7.2-1.1.2,0-.7,0-1.2-.6-1.6h0ZM163.6,46.5c1-.5,2.3,0,3.2-.9-.5-.4-1.1,0-1.5-.6.8-.3,1.7,0,2.5-.7-1.2,0-2.2-.2-3.2-.6-.9-.4-1.3-.8-1.5-1.7-.2-.6,0-.7.5-.8.6,0,1.1-.1,1.8-.2-.4-.6-1-.5-1.4-.7-.9-.5-1-1-.4-1.8.2-.2.3-.5,0-.7-1.6-1.3-1.5-3.2-1.9-4.9-.1-.4-.2-.9-.3-1.4-.3,1.1-.3,2.2-.4,3.2,0,.8,0,1.7-1,2.2-.6.3.4,1.2-.4,1.5.9,1.3-.6.8-.9,1.1,0,0,0,.1-.2.2.3.6,1.3.3,1.4.8,0,.8-.9.4-1.2.9.7,1,.5,1.3-1.7,1.7.3.6,1.1.9,2.5,1-.4,1.1-1.5.9-2.2,1.1.2.7.8.9,1.5,1-.9.8-2,1.2-3.3,1.3.9.5,1.6,1.2,2.7,1.5-.8.7-1.8.8-2.6.6-1.7-.5-3.2-1.3-4.4-2.6-.2-.2-.4-.5-.2-.8.2-.3.5-.3.7-.2,1.7,1.2,3.2,0,4.9-.4-1.8-.8-4-.8-5.4-2.6.7-.4,1.3,0,2-.3-.3-.3-.7-.5-.9-.8-.2-.2-.7-.4-.5-.8.2-.3.7-.2,1-.1.6.1,1,.6,1.4.9.6.3,1.5,1.6,2-.2.1-.5,1-.2,1.3-.7-.6-.4-1.5-.2-2.1-.7-.3-.2-.7-.5-.7-.8,0-.5.5-.4.8-.5.5-.3,1.2-.3,1.5-1.2-2,.2-3.8,0-5.6-.6-.3,0-.8,0-.8-.4s.5-.5.8-.6c.6-.2,1.3,0,1.7-.7-.5,0-1-.1-1.5-.2-.4,0-1,0-.9-.6,0-.5.6-.5,1-.4.9.1,1.7-.3,2.5-.5.2,0,.4-.2.4-.5-.6-.2-1.3.1-1.9-.5.9-.6,2.2,0,3.3-1.1-1.9.5-3.2-.4-4.6-.7-.8-.2-1.7-1.7-1.6-2.5,0-.4.4-.4.7-.4.7-.1,1.5,0,2.2-.3-.1-.6-.7-.5-1-.7-.7-.2-1.2-.5-1.5-1.1-.2-.5-.5-.9.3-1.1.7-.2.7-.7.1-1.1-.9-.5-1.1-1.4-1.4-2.2-.6-1.8-.8-3.8-1.3-5.9-.2,2-.4,3.7-.5,5.4,0,.5,0,.9-.4,1.3-.5.5-1.4.8-.7,1.8,0,0-.9.8,0,1.4.1,0-.3.3-.5.4-.5.2-1,0-1.3.5.2.5.7.5,1.1.6.3,0,.7.1.7.6,0,.4-.4.3-.6.5-.4.3-2,0-.4,1.1.3.2-.1.5-.3.7-.7.7-1.7.6-2.5.7.4,1.4,1.4,1.4,2.4,1.3.3,0,.6-.2.7.2,0,.3-.2.5-.5.7-.7.5-1.5.4-2.3.5.3,1,1,1.4,2,1.2-.9,1.2-2,1.6-4.2,1.7,0,0,0,.2,0,.2,1.2.5,2.1,1.4,3.5,1.9-1.3.7-2.5.6-3.7.7-.3,0-.4-.4-.5-.7-.6-2.1-2-3.4-3.9-4.3,0,0,0,0,0,0-2.8-1.3-4.8-3.4-5.8-6.5-.5-1.5-2-1.6-3.1-2.2-.2-.1-.5,0-.7.2-1.4,1-2.8,1.9-4.1,2.9-.2.1-.4.3-.4.5-.4,1.7-1.4,1.4-2.5.8-1.6-.7-3.1-1.4-4.7-2.1-.5-.2-.7-.6-1-1-1.5-2.4-3.1-4.8-4.6-7.2-.4-.7-.9-1-1.7-.8-1.4.3-2.9,0-4.3-.3-1-.2-1.6,0-2.1.9-1.1,2-2.5,3.8-3.7,5.7-.4.7-.8,1-1.7,1s-1.8.4-2.4,1.1c-.6.7-1.2.8-2,.6-1.1-.3-2.3-.4-3.5-.7s-1.1,0-1.5.6c-.8,1.1-1.6,2.2-2.4,3.3-.4.5-.8.7-1.3.2-.2-.2-.3-.4-.6-.4-1.7,0-1.9-1.3-2.2-2.4-.2-.6.3-.6.7-.6.7-.1,1.4,0,2.1-.3-.2-.7-.8-.5-1.2-.7-.7-.2-1.2-.5-1.5-1.2-.2-.4-.4-.8.3-1.1.6-.2.7-.7.3-1-1.4-.9-1.5-2.5-1.9-3.8-.2-.7-.3-1.4-.5-2.2,0-.2,0-.3-.3-.4-.3,0-.3.2-.4.4,0,1.1-.2,2.1-.3,3.2,0,.6-.1,1.2-.7,1.5-.6.4-1,.7-.4,1.4.2.2,0,.4-.3.6-.2,0-.4.3-.3.5,1.3,1.3-.3.9-.7,1.1-.2.1-.6.1-.6.4,0,.4.3.4.6.5.2,0,.3,0,.5.2.3,0,.7.1.7.6,0,.4-.5.4-.7.5-.3,0-.6.2-.9.3.7,1.2.5,1.7-1,2-.4,0-.8.1-1.2.2.2,1.4,1.2,1.3,2.2,1.3s.7-.2.8.2c.1.4-.3.6-.6.8-.6.4-1.4.3-2.1.4.2,1.1,1,1.3,2.3,1.2-1.6,1.2-2.9,2.1-4.6,1.5,0,.2,0,.3,0,.3,1.1.7,2.3,1.3,3.5,2-1.3.7-2.8.4-4.3.9.7.6.8,1.5,2.1,1.3.6,0,1.7.5,2.5.9.6.3.3.7-.2.9-.5.3-1.1.5-1.7.8,0,0,0,.2,0,.2.4.4,1.4,0,1.4.7s-1,.7-1.5.9c-1.7.7-3.3.2-4.8-.4-.8-.4-.8-1.3-.9-1.9,0-.5.8-.3,1.3-.4.3,0,.7,0,.9-.3-.3-.5-.9-.4-1.3-.6-.9-.5-1-1-.4-1.8.2-.2.3-.5,0-.6-1.6-1.2-1.5-3.1-1.9-4.8,0-.4-.2-.8-.4-1.2,0,.9-.2,1.9-.3,2.8,0,.9,0,1.7-.9,2.4-.4.3-.6,1.4,0,2.2-.5.1-.9.3-1.4.4,0,.2,0,.4.2.4.7.4,2.3.6.1,1.3-.2,0-.3.2-.2.4.9,1.4-.5,1-1,1.3s-.8,0-.7.4c0,.4.3.8.8.7h1.6c-.2.8-.7.9-1.3,1-.3,0-.8,0-.8.3s.4.7.8.7.3,0,.7.1c-1.1.8-2,1.5-3.4,1.4.9.5,1.8,1,2.7,1.5-.9.7-2.2.3-3.2.7.4,1.4,1.8.8,2.6,1.4.3.2,1,0,1.1.6,0,.6-.6.6-1,.8-.2.1-.4.2-.7.4.3,0,.5.2.7.3.3,0,.6.1.6.5s-.3.5-.6.6c-1,.4-2.1.5-3.3.5.3,2,2,1,3.3,1.5-2.1,1.4-4.1,2.2-6.5,1.5-.1.6.5.7.6,1.1-.8.2-1,1-1.5,1.6,2.1.4,4.3.2,6.4.7-.8,1.3-2,1.5-3.3,1.8.5.6,1.2.5,1.8.6.2,0,.5,0,.6.3,0,.3-.2.4-.4.5s-.5.2-.7.2c-1.3,0-2.3.9-3.9.7.8.7,1.5,1.1,2.1.9,1.5-.3,3.2-.2,4.4-1.5.7-.8,1.7-1.2,2.8-1.4,3.7-.6,7.4-1.1,11.1-1.5.7,0,1.1-.3,1.6-.7,3.6-3.3,7.3-6.5,11-9.7,1.4-1.2,2.8-2.3,4.2-3.4.2-.2.5-.3.5-.5.2-2.1,2-2.3,3.4-2.6,5.2-1.1,10.6-1.9,15.9-2.5,4.4-.6,8.9-1,13.3-1.3,3.2-.2,6.4.3,9.5.9,7,1.3,13.5,3.6,20,6.4.7.3,1.3.6,1.8,1,.6.5.9,1.5,2,.7.3-.2.9,0,.9.6s-.5.5-.8.4h-.6c.9,1.8,1.7,3.4,2.6,5,1.3,2.5,2.6,4.9,3.8,7.5.5,1,1.2,1.9,1.9,2.7.3.5,5.6,1.4,6.1,1.1.2,0,.2-.3.4-.5-.6-.3-1.1-.6-1.7-.9.1-.5.7-.3.8-.7,0-.1,0-.2-.2-.2-2.1,0-3.7-.9-5-2.4-.2-.3-.5-.5-.5-.8,0-.3,0-.5.1-.7.2-.1.5,0,.7.2.2.3.4.5.7.7.6.6.8.6.9-.3,0-.3.9,0,.4-.7-.2-.2-.6-.5-.5-.8.2-.4.7-.1,1,0,.8,0,1.7.2,2.6.3.2,0,.5,0,.5-.3,0-.2-.2-.4-.4-.4-.8,0-1.2-.9-2-.9-.2,0-.4,0-.4-.4s.2-.4.4-.6c.4-.3,1,0,1.4-.8-2,.1-3.7-.5-5.3-1.5-.2-.1-.4-.2-.5-.3-.4-.4-1.1-.7-.8-1.2s.9,0,1.3.2c1.2.6,2-.6,3.4-.6-1.6-.8-3.4-.7-4.4-2,.5-.4.9,0,1.3-.3,0-.2-.2-.3-.3-.4-.3-.3-.9-.5-.7-.9.3-.5.9-.2,1.3,0,.3.2.5.5.7.6.5.2,1.1.8,1.4-.3.1-.5.8-.1,1-.7-.6-.2-1.3-.2-1.8-.6-.5-.4-.7-.7,0-1,.5-.1.9-.3,1.3-1-1.6.2-3.1,0-4.5-.5-.3,0-.7,0-.6-.4,0-.3.3-.3.6-.4.5-.1,1,0,1.5-.6-.7-.2-1.5,0-2-.7h0ZM185.3,105.1c-1.2-.3-2.3-.2-3.3.8-.9.9-2.2,1.4-2.8,2.8-.4,1-1.2,2-1.8,2.9-.2.3-.9.6-.2,1,.7.4,1.8.2,1.9-.3,0-1.2,1-1.1,1.6-1.2,1.3-.3,2.5-2.3,2-3.4-.2-.6-.7,0-1.1-.3.5-2.1,3.1-.7,3.7-2.4h0ZM34.9,107.5c-.8,1.2.6,1.7.8,2.5.1.7.9.6,1.5.7.6.2,1.1.2,1.4,1.1.3.9,1.4.4,2.2.3-2.4-1.9-2.8-5.2-5.4-6.9-1.2-.7-1.1-.8-2.6-.4.3.6.8.7,1.3.8.4,0,.7.2,1.1.2.6,0,1,.5.9,1-.1.7-.7,0-1.2.2,0,.2.2.4.1.5h0ZM155.7,44.4c0,0,.2-.4.2-.4-.7-.5-1.4,0-2.4,0,.9.4,1.5,1,2.2.4h0ZM53.4,73.1c0,0,.2-.4,0-.4-.6-.5-1.1.3-1.7.2.5.2,1,.6,1.6.3h0ZM155.2,48.9c-.6-.5-.9-1.4-2.1-1,.8.4,1.3,1,2.1,1ZM57.8,63.4c0,0-.1-.1-.2-.1s-.1,0-.2,0c0,0,.1,0,.2,0,0,0,.1,0,.2,0h0Z"/>
  <path class="cls-3" d="M184.7,118.6c-.4,0-1.4-.2-1.5.5,0,.7,1,.3,1.5.5.4,0,.8.2,1.2.2s.8.3.9-.3c0-.4-.3-.8-.8-.8h-1.4,0Z"/>
  <path class="cls-3" d="M199.5,105c1.7,0,3.1-.6,4.4-1.3,0-.6-.3-.4-.5-.4-.9,0-1.7.9-2.9.5-.4-.2-.6.8-1.1,1.1h0Z"/>
  <path class="cls-3" d="M13.8,103c1.2,1,2.6,1.6,4.5,1.8-1.2-1.9-3.2-1-4.5-1.8Z"/>
  <path class="cls-3" d="M30.7,119.4c1.2-.1,2.3-.3,3.4-.4.3,0,.6-.3.3-.5-.8-.5-1.8-.2-2.6-.2s-.9.4-1,1.1h0Z"/>
  <path class="cls-3" d="M30.6,112.9c-.9-.2-1.8-.5-2.7-.7-.3,0-.8-.4-.8.3,0,.4.1.9.8.8.9,0,1.8-.1,2.7-.2v-.2h0Z"/>
  <path class="cls-3" d="M187.2,113.5c.9,0,1.8.1,2.7.2.9,0,.4-.8.8-1.1-1.3,0-2.4.4-3.5.9h0Z"/>
  <path class="cls-3" d="M197.4,104.9c-.3-.2-.6,0-.8.2-.4.2-1,.3-.9.8,0,.5.6.3.9.4.7.1.8-.4.8-.9,0-.2.2-.3,0-.5h0Z"/>
  <path class="cls-3" d="M190.8,106.2c1.3.3,2.1.4,2.2-1.2-.8.2-1.4.6-2.2,1.2Z"/>
  <path class="cls-3" d="M26.7,105.8c-.3-.5-.8-.6-1.2-.7-.3-.1-.7-.5-.8,0-.1.3.1.8.6.9.4,0,.9.1,1.4,0h0Z"/>
  <path class="cls-3" d="M21.2,105.7c.3,0,.8.1.7-.4,0-.6-.7-.7-1.3-.8-.5,0-.4.3-.4.6,0,.6.4.6.9.6h0Z"/>
  <path class="cls-3" d="M180.5,120.2c.8.8,1.7,1,2.6,1.2-.7-.7-1.4-1.1-2.6-1.2Z"/>
  <path class="cls-3" d="M29.3,118.3c0-.1,0-.2,0-.2-.6-.5-1.2-.3-1.8-.2-.2,0-.2.3,0,.4.7.3,1.3.2,2,0h0Z"/>
  <path class="cls-3" d="M188.1,118.5c.9.6,1.5.6,2.2.3,0,0,0-.3,0-.3-.6-.4-1.3-.2-2.2,0h0Z"/>
  <path class="cls-3" d="M22.7,99.2c.3.7.9,1,1.6,1.1-.3-.7-.8-1-1.6-1.1Z"/>
  <path class="cls-3" d="M193.6,97.2c-1,0-1.5.3-2,.7-.2.1-.3.4-.1.6.2.2.4,0,.5,0,.4-.3.8-.6,1.5-1.1h0Z"/>
  <path class="cls-3" d="M193.3,100.8c.8,0,1.2-.6,2-1.2-1.1,0-1.6.6-2,1.2Z"/>
  <path class="cls-3" d="M24.4,96.8c.1.2.2.3.2.4.5.2.8.9,1.4.8.2,0,.2-.3,0-.4-.4-.5-1-.7-1.8-.7h0Z"/>
  <path class="cls-3" d="M28.8,106.8c-.7-.6-1.1-.7-1.7-.5-.2,0,0,.4,0,.5.5.7.9,0,1.6,0h0Z"/>
  <path class="cls-3" d="M36.9,119.9c-.8,0-1.6.4-2.2,1,.9,0,1.6-.5,2.2-1Z"/>
  <path class="cls-3" d="M17.6,100.4c.6.5,1.2.8,2.2,1-.7-.7-1.5-.8-2.2-1Z"/>
  <path class="cls-3" d="M200.1,101c-.8,0-1.6,0-2,.9.7-.3,1.4-.6,2-.9Z"/>
  <path class="cls-3" d="M39.2,121.3c.5-.6.7-1,.5-1.5,0,0-.3,0-.3,0-.4.4-.3.9-.2,1.6h0Z"/>
  <path class="cls-3" d="M178.4,121.5c.1-.6.3-1-.1-1.4,0,0-.3,0-.3,0-.2.5,0,.8.4,1.3h0Z"/>
  <path class="cls-3" d="M189.8,107.4c.5,0,.7-.2.7-.5,0-.5-.4-.3-.6-.3s-.7,0-.6.4c0,.4.4.3.6.3h0Z"/>
  <path class="cls-3" d="M184.5,96.8c0,0,.2.2.3.1.2-.1,0-.3,0-.4h0c0,.2,0,.2-.3.3h0Z"/>
  <path class="cls-3" d="M190.2,101.2c0,0,.2,0,.3,0-.2-.2-.2,0-.3,0h0Z"/>
  <path class="cls-3" d="M27.7,101c0,0-.2-.1-.3-.2,0,.3.2.1.3.2h0Z"/>
  <path class="cls-3" d="M173.5,65.3s0,0,0,0c0,0,0,0,0,0h0Z"/>
  <path class="cls-3" d="M133.2,84.8c-.6.8-1.5,1.2-2.2,1.7-3.5,2.2-7.2,4.3-10.9,6.2-.5.2-1.1.4-.8,1.1.3.8.9.6,1.4.4,3.2-1.4,6.3-2.8,9.4-4.2,2.7-1.2,5.3-2.4,8-3.5,2.5-1,3.7-3,3.9-5.5.2-3.4.1-6.7.2-10.1,0-.6-.2-.7-.8-.7-6.6.5-13.2.9-19.8,1.3-1.3,0-2.6.4-3.4-1.2.2,1.8.9,2.8,2.4,3.1.9.2,1,.6.7,1.3-1.6,3.5-3.1,7.1-4.7,10.9,2.3-1,4.4-1.9,6.5-2.8,5.4-2.3,10.8-4.6,16.1-6.9.3-.1.7-.5,1-.1s-.2.7-.4.9c-1.6,2.1-3.5,3.7-5.8,4.9-5.2,2.7-10.4,5.4-15.6,8.1-.8.4-.9.8-.5,1.5.4.8.9.3,1.3.1,2.9-1.4,5.7-3,8.6-4.3s2.8-1.5,4.2-2.1c.3-.1.6-.4,1,0h0Z"/>
  <path class="cls-3" d="M114.5,84.2c-.9-3.3-1.7-6.5-2.6-9.7-.3-.9,0-1.3.9-1.3.2,0,.3,0,.5,0,2.3-.5,2.9-.2,3.6,2.1.2.7,0,1.3-.4,1.7-2.1,1.9-1.9,4.1-.6,6.5.8-1.8,1.4-3.6,2.3-5.2.8-1.5.6-2.8-.2-4.2-1-1.7-1.8-3.5-2.7-5.2-.6-1.1-1.2-1.6-2.6-1.7-5.7-.5-11.5-.7-17.2-.7-5.2,0-10.3.7-15.4,1.8-.2,0-.5,0-.7.4,1,0,2,0,2.9-.2,1.5-.4,2.9-.3,4.4-.4,1,0,3.1,1.7,3.3,2.7,0,.4-.1.6-.4.7-.4.3-.9.6-1.3,1,2.1-.7,4.3-.5,6.5-.7,3.9-.3,7.9-.3,11.8-.4,1.5,0,2.7.7,3.3,2.1,1.4,3.3,2.8,6.7,4.1,10,.1.3.3.6.4.9h0Z"/>
  <path class="cls-3" d="M93.4,95.9c4.2-3.4,9.8-2.2,12.3,2.6,2.5,4.9.7,11.5-4.1,14.5-3.8,2.4-8.3,1.1-10.4-1.9-1.3-1.8-2-3.9-2-5.7,0-4,1.5-7.4,4.2-9.6h0ZM93.6,110.3h0c0,0-.1,0-.2.1,0,0,0,0-.2.1h0v-.2c0,0,.2,0,.3,0h0ZM93.4,112c0,0,.2.2.3.3.7.5,1.7,1.3,2.4.9.6-.3,0-1.5,0-2.3,0-.9-.2-1.9-.3-2.8,1.3-.2,1.9.3,2.3,1.6.2.8,1.4,1.3,2.2,1.9.2.1.5.1.7.4.2.2.6-.2.8-.4.4-.3.2-.6,0-.8-.8-1.2-1.8-2.1-2.7-3.2-.3-.3-.9-.6-.3-1.2.5-.6,1.1-.7,1.6-.2.7.6,1.3,1.2,2,1.9.6.6,1,.5,1.5,0,.6-.7.8-1.7,1.8-2.2-.9-.7-1.9-.4-2.7-.7-.3-.1-.9,0-.7-.6.4-1-.4-1-1.3-1.3,1.5-.3,2.6,0,3.8,0,.7,0,1-.2.8-.9,0-.4-.2-.8,0-1.2.2-.5-.2-1-.5-1.3-.4-.3-.7,0-1,.2-.9.4-1.7.8-2.6,1.2-1,.5-1.9,0-2.8-.6,1.9-.7,3.3-1.8,4.9-2.9-1-.4-1.5-1.2-2.4-1.6-.5-.2-.8-.3-1,.4-.2,1.1-1.1,1.9-1.7,2.8-.4.6-.9.4-1.3.2-.6-.3,0-.6.2-.9.4-.8.8-1.5.9-2.4,0-.6-.2-.8-.7-.7-1,.2-1.8.7-2.7,1.2-.2.1-.3.3-.1.5.6.6,0,1.4.7,2.1.6.6-.1,1.4-.7,1.9-.4.3-.5-.1-.6-.4-.4-.9-.7-1.7-1.4-2.5-.5.9-1,1.8-1.5,2.7-.4.7-.4,1.3.7,1.3s.9.2,1.7.3c-1.1.5-.9,1-.2,1.5-.7.4-1.3.6-2,.6-1.8,0-1.8,0-1.4,1.9.3-.1.1-.5.4-.7.3,1,.6,2,.8,3.1.9-.7,1.2-1.9,2-2.6.3-.3.6-.9,1-.5.4.4,1,.8.6,1.6-.4.9-.7,1.8-1.2,2.8,1.6-.4,1.4,1,1.7,1.8.2.5-.2.5-.5.4-.4,0-.7-.2-1.1-.3,0-.2-.3-.2-.5,0h0ZM104.3,109.1c.1-.2.2-.4.5-.9-.7.5-1,.8-.9,1.4.2-.2.3-.3.5-.5ZM104.9,108s0,0,0,.1c0,0,0,0,0,0h0c0,0,0,0,0,0h0ZM100.6,112.5c0,0,.1-.1.2-.2,0,0,0,0,0-.1,0,0,0,0-.1.2,0,0,0,.1,0,.2h0Z"/>
  <path class="cls-2" d="M138.6,110.4c5.7.3,11.4.6,17.1,1.2.8,0,1.8.5,2.6-.3,0-1.5-1.3-2.5-1.4-4.1,0-.7-.8-1.5-.9-2.5,0-.4-.5-.3-.7-.3h-12.3c-.7,0-1,.2-1,.9,0,.2,0,.4,0,.5-1.2,1.4-1.2,3.7-3.2,4.5h0Z"/>
  <path class="cls-3" d="M108.6,58.2c-2.4,2.7-5.5,4.1-8.9,4.6-2.3.4-4.7.4-7,.6-3.5.3-7.1.5-10.7.7-.3,0-.8.2-1-.2-.1-.4.2-.7.5-.9.5-.4.9-.7,1.4-1.2,3.5-3.2,7-6.3,10.8-9.1.7-.5,1.5-1.1,2.5-1.3,5.8-.9,11.4.4,17.3,2-1.8,1.7-3.4,3.2-4.9,4.8h0ZM87.6,62.5c3.4-.2,6.9-.4,10.3-.7,3.5-.3,6.8-1.5,9.3-4.1.9-1,2-2,3-3,.5-.5.5-.7-.2-.8-4.3-1-8.7-1.7-13.2-1.1-.4,0-.8.1-1.2.4-4.2,2.6-7.8,6.1-11.4,9.6,1.1,0,2.2,0,3.4-.2h0Z"/>
  <path class="cls-3" d="M125.4,45.6c.2.3.4.4.7.4,5.9-.2,11.5,1.5,17,3.3,2,.7,3.9,1.4,5.9,2.1.2,0,.5,0,.5.4,0,1.6.9,2.9,1.6,4.2.8,1.7.9,3.3.5,5-.4,1.6-.8,3.1-1.1,4.7,0,.3-.4.7.2.9.5.2.6-.2.7-.6.8-2.8,1.6-5.5,2.4-8.3,0-.3.2-.7,0-.9-.5-.4-.4.2-.5.3-.3.2-.4,0-.5-.2-.6-1.3-1.2-2.7-1.8-4.1-.3-.6,0-.7.6-.6,1.5.4,2.7,1.1,3.4,2.6,1.6,3.2,3.3,6.3,4.9,9.5.4.7.7,1.4,1.6,2,0-.7-.4-1-.6-1.4-1.7-3.4-3.4-6.8-5.1-10.1-.7-1.3-1.6-2.2-3-2.8-6.6-2.6-13.3-5.1-20.3-6.3-1.9-.3-3.7-.5-5.6-.4-.4,0-.9,0-1.3.3h0Z"/>
  <path class="cls-2" d="M67.9,111.1c3.8-.4,7.6-.5,11.5-.7-.7-.6-1-1.1-.9-2.1,0-1.2-.7-2.4-.5-3.7,0-.4-.4-.3-.7-.3-.9,0-1.8-.2-2.7-.2-1.4,0-2.9,0-3.4,1.8-.4,1.4-2,2.1-2,3.7,0,.3-.4.5-.7.6-.5.2-.5.6-.5,1h0Z"/>
  <path class="cls-3" d="M169.4,105.6c-1-1.2-.8-2.4.4-3.4.2,0,.1.3.2.5.2.7.7,1.1,1.4,1s.7-.7.7-1.3c0-.8-.4-1.3-1.1-1.3-.6,0-1.1.1-1.9.3.5-.7-.1-1.8,1.5-1.7.9,0,2-.9,2.6-1.9.2-.3.5-.9,0-1.1-.5-.2-.9,0-1,.6-.2.6-.6,1.1-1.1,1.4-.6-1.5,1.2-2.9,2.9-2.1.6.3,1.2.7,1.9,1.1-1.3-2.6-4.3-2.1-5.5-.6-1.2,1.5-1.7,3.2-1.9,5-.3,2.3-.2,4.5.8,6.6.6,1.2,1.5,1.9,2.8,1.9,1,0,2-.3,2.4-1.2.4-.9,1-1.8,1.3-2.7.4-1,.7-2.1.7-3.2-.4,0-.5.2-.7.4-1,1.1-2.2,1.4-3.5.8-.2,0-.3-.2-.5-.2-.4,0-.9-.3-1.1,0-.3.6.4.6.7.8.8.5,1.7,1,2.4,1.7.2.3.5.6.3.9-.3.4-.5-.1-.7-.1-1.3,0-1.9-.9-2.5-1.9-.2-.2-.4-1.1-1.1-.4.6.6.9,1.2,1.3,1.9.2.3.4.7,0,1-.3.2-.7-.2-.9-.4-.7-.7-.3-1.6-.6-2.3h0Z"/>
  <path class="cls-3" d="M132.6,54.6c-1.8,1-3.6,2-5.1,3.4-.3.3-.7.5-.6.9,0,.4.5.6.8.7,1.4,0,1.8,1,2.1,2.2.2.8.2,1.6.4,2.4.4,1.5-.3,1.4-1.4,1.4s-1-.8-1.1-1.4c-.6-3.1-1.4-3.9-4.2-4.1-.9,0-2.1.5-2.5-.2s-.2-1.8-.2-2.8h0c-.1-1.2.4-1.8,1.4-1.9,5-.8,10-1.1,15-1.4-1.5.3-3.1.2-4.4.8h0ZM122.6,56.4c-1.1.2-.6,1-.6,1.6,0,.6.2.8.7.8h.8c1.1.2,2,.2,2.3-1.2.2-.8,1.1-1.1,1.7-1.9-1.7.2-3.3.4-5,.7h0Z"/>
  <path class="cls-3" d="M137.9,53.6c3.3-.3,6.6-.6,9.9-.8.3,0,.5,0,.6.3,1.1,2.6,2.7,5,1.8,8.2-.8,2.6-.7,2.6-3.4,2.9-.8,0-1.1-.2-1.2-.9-.1-1-.4-2.1-1.2-2.8-1.2-.9-1.8-2.1-2.4-3.4-.8-1.8-2.4-2.8-4.4-3.3,0,0,.2-.1.3-.1h0ZM145.3,59.5c.8.6,1.1,1.6,1.4,2.6.1.5.3.8.9.7.6,0,.8-.3,1-.8.9-2.6.4-5-.9-7.3-.2-.3-.3-.6-.7-.5-1.6.1-3.3.3-5.3.4,1.8,1.5,1.9,3.7,3.6,4.9h0Z"/>
  <path class="cls-2" d="M112.3,109.9h10.3c-.5-.9-.9-1.8-1.4-2.6-.2-.3-.4-.6-.4-.9.2-1.5-.7-1.7-1.9-1.7-1.3,0-2.5-.2-3.8-.2-.5,0-1.2-.4-1.4,0-.3.7-1.1,1.3-1,2,.2,1.1,0,2-.7,2.8,0,0,0,.4.1.6h0Z"/>
  <path class="cls-3" d="M106.5,64.2c3.1-3,6.1-6.1,9.2-9.1s1.2-.7,2-.4c.9.3.9.9.9,1.6,0,.5,0,1,0,1.5.3,2.6-.8,4.8-2,7-.5.8-1.2,1.1-2,1.1s-1.1,0-1.7-.1c-2.3-.3-4.7-.3-7.1-.7.3-.4.5-.6.7-.8h0ZM114.2,64.5c.6,0,1,0,1.3-.6,1.4-2.2,1.9-4.7,1.7-7.3,0-.3.1-.6-.3-.7-.2,0-.4,0-.5.2-2.5,2.6-5,5.2-7.6,7.9,1.8.2,3.6.3,5.4.5h0Z"/>
  <path class="cls-3" d="M103.9,64.7c0-.7.7-1,.7-1.7-.5-.3-.8,0-1.1.2-1.4.5-2.7.9-4.2,1-6.1.3-12.1.5-18.2.8-.4,0-.8,0-1-.7.7.7,1.4.6,2,.5,5.5-.3,10.9-.6,16.3-1,3.9-.3,7.3-1.6,10.1-4.5,3.9-4.1,8-7.9,12.5-11.3,1-.7,2.1-1.5,3.4-1.6-7.8,5.1-14,11.9-20.6,18.3h0ZM104.7,62.9s0,0,0,0c0,0,0-.1,0-.2,0,0,0,0,0,0h0Z"/>
  <path class="cls-3" d="M144.4,90c-.4,1.1,0,1.8.7,2.3.7.5.9.9.2,1.7-.7.7-1.1,1.6-1.6,2.3-.7,1.1-1.8,1.6-3.1,1.7-6.4.2-12.8.5-19.2.7h-.1c-.5.2-1.4-.2-1.5.5,0,.6.8.8,1.3,1.2.1,0,.4.2.4,0,.2-1.3,1.3-.7,1.9-.7,6.4-.2,12.7-.4,19.1-.6,1.3,0,2.2-.6,2.9-1.6s1.2-2,1.8-3.1c.5-.8.4-1.5-.3-2.2-.8-.7-1.5-1.4-2.4-2.3h0Z"/>
  <path class="cls-3" d="M58.1,104c2.5-.9,4.8-1.8,7.2-2.7-.7-.7-1.4-.9-2.4-.4-2.2,1-4.4,1.8-6.6,2.7-.2,0-.5.2-.7.3-.4.4-1.3.6-1.1,1.1.2.5.9.3,1.5.2,3.6-.6,7.1-1.2,10.7-1.9,1.9-.3,3.7-.7,5.7-1-1-.4-1.9-.2-2.8,0-3.5.6-7,1.3-10.5,1.9-.3,0-.6.2-1.1-.2h0Z"/>
  <path class="cls-3" d="M122.9,45.2c-2.3.2-4.5.4-6.5.7-6.7.7-13.4,1.5-20.1,2.6-.2,0-.3,0-.5,0-.4,0-1,0-1,.5,0,.7.7.2,1,.1,8.2-1.1,16.5-2.3,24.8-3,.8,0,1.5-.2,2.3-.9h0Z"/>
  <path class="cls-3" d="M147.5,52.1c-9.6-.2-19.1,1.3-28.4,2.1.8,2,0,4.3.3,6.6.6-.1.5-.6.5-1,0-.9,0-1.7,0-2.6,0-2.1.4-2.5,2.4-2.8,4.9-.7,10-1.2,14.9-1.6,3.4-.3,6.9-.5,10.3-.7h0Z"/>
  <path class="cls-3" d="M129.4,57.3c2.5,0,4.9,0,7.4.5.4,0,.7.2,1.1.2.7,0,1.3-.2,1.6-.8.2-.5-.6-.7-.8-1.1-.7-1.4-2-1.6-3.3-1.4-1.4.2-3,0-4.1,1.3-.5.6-1.3.9-1.8,1.2h0Z"/>
  <path class="cls-3" d="M153.3,64.6c-.6-.1-.8-.3-.6-.9.5-1.8,1-3.6,1.5-5.4,0-.2.1-.5.4-.6.4,0,.5.2.6.5,1.2,2.5,2.3,4.9,3.6,7.6-2-.5-3.8-.9-5.6-1.2h0ZM155.1,60.9c-.5.7-.6,1.5-.8,2.2-.1.4.2.5.5.5.5,0,1,.2,1.8.3-.5-1.1-.9-2-1.4-3Z"/>
  <path class="cls-3" d="M69.4,81.1c1.8-.4,3.2-1,4.8-1.9-2,0-2.3-1.4-2.8-2.8-.4-1.1-.8-2.1-1.2-3.2-.4-1-1.1-1.5-2.2-1.4-3.4,0-6.8.2-10.2.3-.2,0-.5,0-.7.2-.3,0-.6.3-.5.6,0,.4.5.1.7,0,3.5-.3,7-.4,10.5-.3.7,0,1.1.5,1.2,1.2.2,1.1.5,2.2.7,3.4.3,1.3,1.4,2.7-.4,4h0Z"/>
  <path class="cls-3" d="M138.8,63.8c1.1.2,2-.3,2.9-.7.7-.4.4-1.2.4-1.8,0-2.4-.7-2.8-2.7-1.5-1.1.7-1.7,1.9-2,3.2-.2.8.2.6.6.4.6-.3,1.1-.6,1.6-.9.2,0,.4-.2.6,0s0,.4-.2.5c-.4.3-.6.7-1.1,1h0Z"/>
  <path class="cls-3" d="M160.1,74.7c-.7-.3-1,0-1.3.2-.5.5-.8,1-1.1,1.6-3.1,6.4-6.2,12.8-9.4,19.2-.2.5-.5.9-.2,1.6.6-.5,1-1.2,1.3-1.9,2.9-6,5.8-12,8.7-17.9.5-1,.9-2.1,2.1-2.9h0Z"/>
  <path class="cls-3" d="M94.5,50.5c-6.2,4.1-11.7,9-17.3,14.4,1.6-.2,2.2-1.2,3-2,3.7-3.9,7.8-7.2,12.1-10.5.8-.6,1.9-.8,2.2-2h0Z"/>
  <path class="cls-3" d="M147.3,77.7c.7-.4.9-1.2,1.5-1.5.7.2-.5,1.2.5,1,.7-.1,1.2-1,.8-1.6-.7-1.1.4-1.3.7-1.9.4-.6.9,0,1.3,0,.7.2,1.5.7,2.6.4-1.4-.9-2.7-1.8-3.9-2.6-.4-.3-.6,0-.8.3-.3.5-.5.9-.8,1.4-.2.4-.4.7-.9.4-.8-.4-1,.6-.9.7.6,1.1-.3,2-.2,3,0,0,0,.2.1.3h0Z"/>
  <path class="cls-3" d="M148.1,68.2c-.2-.2-.4-.5-.7-.6-1.3-.4-2.3-1.1-3.2-2.1-.6-.7-1.6-.6-2.4-.5-1.8.3-3.3,1.1-4.7,2.3,2.2-.4,4.4-1.7,6.8-.7-.5.7-1.3.5-1.8,1.1,2.1-.5,4.1-.5,6,.3h0Z"/>
  <path class="cls-3" d="M131.6,62.9c.2-.5.2-.7.3-1,.2-.7.7-.8,1.2-.4,1.1.8,2.5.5,3.3-.6.4-.6-.1-1.5-.9-1.5-.8,0-1.7,0-2.4,0-2.4.3-2.8,1-1.5,3.5h0Z"/>
  <path class="cls-2" d="M78.6,72.9c-.5,0-.8-.5-.8-.7-.2-1.1-.9-.7-1.6-.7.6,1.4,1.4,2.4,2.6,3.2,0,0,.2.1.3.2,1.4.5,5.4-1.3,6.1-2.7-1.4.4-2.8.8-4.2,1.2-.8.2-1.7.5-2.4-.3h0Z"/>
  <path class="cls-3" d="M136.1,93.1c.4-1.9.3-2-1.2-1.6-5.7,2-11.4,4-17,6.1-.2,0-.3.2-.4.5,1.2-.4,2.4-.7,3.6-1.1,4.5-1.4,9.1-2.8,13.6-4.3.6-.2.9,0,1.3.4h0Z"/>
  <path class="cls-3" d="M144.2,76.8c1-2,2-3.9,2.9-5.9.2-.3,0-.5-.3-.6-2-.6-3,.3-3,2.3s0,1.4,0,2.1c-.2.7.3,1.3.1,2,.1,0,.2,0,.4,0h0Z"/>
  <path class="cls-3" d="M147.9,101.1c.8.5,1.9.3,1.7,1.5,0,.4.5.4.8.4,1.2,0,2.5,0,3.7,0,.9,0,1-.4,1-1.1,0-.8-.4-.8-1-.8h-6.2,0Z"/>
  <path class="cls-3" d="M154.4,69.4c0-1.1.5-1,1.2-.9,1.8.2,3.6.4,5.6.8-.4-.8-1.1-1.1-1.7-1.3-1.9-.5-3.8-.8-5.8-1.3-.6-.1-1,0-.6.7l1,2c0,0,.2,0,.3,0h0Z"/>
  <path class="cls-3" d="M156.8,71.2c.9.8,1.8.9,2.9.7,2.1-.4,4.3-.4,6.5-.3h2c-1-1.2-9.1-.9-11.5-.3h0Z"/>
  <path class="cls-3" d="M103.6,50.3c3.5.4,7,1.3,10.5,1.9-3.4-1.1-6.9-1.9-10.5-1.9Z"/>
  <path class="cls-3" d="M79.9,79.8c-1.3.5-2.6,1.1-4,1.9,2.3,0,1.8,1.5,1.9,2.7,0,.6.2,1.2.3,1.8h.3c0-.8,0-1.7,0-2.5-.1-1.2.2-2.2,1.2-3,.2-.2.4-.4.5-.7,0,0-.2-.2-.2-.3h0Z"/>
  <path class="cls-3" d="M171.3,100.4c.6-.3,1.2-.6,1.9-.9.3-.2.6-.3.8,0,.5.7.8.1,1-.2.4-.5.3-1,0-1.4-.4-.4-.7,0-.9.3-.8.8-2,1.3-2.8,2.1h0Z"/>
  <path class="cls-3" d="M172.7,102.1c1.6.9,3.2.7,3.3-.5-1,.6-2.2,0-3.3.5h0Z"/>
  <path class="cls-3" d="M133.1,65.8c-.3-.2-.5-.3-.6-.4-.4-.3-.9-.7-1.3-.3-.4.3,0,.8.2,1.2,0,.3,0,.6.4.7.4,0,.4-.3.4-.6,0-.6.5-.4.9-.6h0Z"/>
  <path class="cls-3" d="M69.2,67c.9.6,2,0,2.9.7.3.2.6-.6,1-.8.2,0,.2-.3,0-.4-.3-.3-.6,0-.9,0-1,0-2,.5-3.1.5h0Z"/>
  <path class="cls-3" d="M78.7,72.9c.2-.4.5,0,.7,0,.4,0,.4-.4.4-.6,0-.2,0-.5-.2-.5-.3,0-.5.1-.7.4-.2.2.3.7-.3.8h0Z"/>
  <path class="cls-3" d="M56,79c-.4.5-.6.9-.9,1.3-.2.3-.3.6,0,.7.3.2.4,0,.6-.2.5-.5.6-1,.2-1.8h0Z"/>
  <path class="cls-3" d="M83.7,71.9c.5,0,.4-.3.4-.6,0-.3.2-.7-.3-.6-.3,0-.6.3-.6.7,0,.3.3.5.6.5h0Z"/>
  <path class="cls-3" d="M102,50.2h.7s-.7,0-.7,0h0Z"/>
  <path class="cls-3" d="M114.5,84.2c0,0,0,.2.1.3-.2,0-.2-.1-.2-.3h0Z"/>
  <polygon class="cls-3" points="118.2 53.8 118.3 53.8 118.2 53.8 118.2 53.8"/>
  <path class="cls-3" d="M148,68.2h0s0,0,0,0h0Z"/>
  <path class="cls-3" d="M80.1,80.2c0,0,.2-.2.2-.3,0-.2-.3-.1-.4,0,0,0,.2.2.2.3h0Z"/>
  <path class="cls-1" d="M164.2,47.7c-.2,0-.6.1-.6.4,0,.5.4.3.6.4,1.4.4,2.9.7,4.5.5-.4.7-.9.8-1.3,1-.8.3-.6.6,0,1,.5.4,1.2.4,1.8.6-.2.5-.9.2-1,.7-.3,1.1-.9.5-1.4.3-.3-.1-.5-.5-.7-.6-.4-.2-1-.5-1.3,0-.3.4.4.6.7.9,0,0,.3.2.3.4-.4.3-.9-.1-1.3.3,1.1,1.3,2.8,1.3,4.4,2-1.3,0-2.1,1.2-3.4.6-.4-.2-1-.7-1.3-.2s.4.9.8,1.2c.1.1.4.2.5.3,1.6,1,3.2,1.7,5.3,1.5-.4.7-1,.5-1.4.8-.2.2-.4.3-.4.6s.2.3.4.4c.8,0,1.2.9,2,.9.2,0,.4.2.4.4,0,.2-.3.3-.5.3-.8,0-1.7-.2-2.6-.3-.4,0-.8-.3-1,0-.2.3.2.6.5.8.6.6-.3.4-.4.7-.2.8-.3.9-.9.3-.2-.2-.4-.5-.7-.7-.2-.2-.4-.4-.7-.2-.2.1-.2.4-.1.7,0,.4.3.6.5.8,1.4,1.5,3,2.4,5,2.4s.2,0,.2.2c-.2.4-.7.1-.8.7.5.3,1.1.6,1.7.9-.1.2-.2.4-.4.5-.4.3-5.7-.7-6.1-1.1-.7-.9-1.4-1.7-1.9-2.7-1.3-2.5-2.6-5-3.8-7.5-.8-1.6-1.7-3.3-2.6-5h.6c.4,0,.8,0,.8-.4s-.7-.7-.9-.6c-1.1.8-1.5-.2-2-.7-.6-.5-1.2-.7-1.8-1-6.4-2.8-13-5.1-20-6.4-3.2-.6-6.3-1.1-9.5-.9-4.5.3-8.9.8-13.3,1.3-5.3.7-10.6,1.4-15.9,2.5-1.4.3-3.2.6-3.4,2.6,0,.2-.3.4-.5.5-1.4,1.1-2.8,2.2-4.2,3.4-3.7,3.2-7.4,6.4-11,9.7-.5.5-1,.7-1.6.7-3.7.4-7.4.9-11.1,1.5-1.1.2-2.1.6-2.8,1.4-1.2,1.3-2.9,1.2-4.4,1.5-.7.1-1.3-.3-2.1-.9,1.6.3,2.7-.7,3.9-.7.2,0,.5-.1.7-.2.2,0,.5-.2.4-.5,0-.3-.4-.3-.6-.3-.6,0-1.3,0-1.8-.6,1.2-.3,2.5-.5,3.3-1.8-2.1-.6-4.3-.3-6.4-.7.5-.7.7-1.5,1.5-1.6,0-.5-.7-.6-.6-1.1,2.4.7,4.4-.1,6.5-1.5-1.2-.5-3,.6-3.3-1.5,1.1,0,2.2-.1,3.3-.5.3,0,.6-.2.6-.6s-.3-.4-.6-.5c-.2,0-.4-.1-.7-.3.3-.1.6-.2.7-.4.4-.2,1-.3,1-.8,0-.6-.8-.4-1.1-.6-.8-.6-2.2,0-2.6-1.4,1-.5,2.3,0,3.2-.7-.9-.5-1.8-1-2.7-1.5,1.4.1,2.3-.6,3.4-1.4-.3,0-.5-.1-.7-.1-.5,0-.8-.4-.8-.7s.5-.3.8-.3c.6,0,1.1-.3,1.3-1h-1.6c-.6,0-.7-.4-.8-.7,0-.5.5-.2.7-.4.5-.3,1.9,0,1-1.3,0-.2,0-.3.2-.4,2.2-.7.6-.9-.1-1.3-.2,0-.2-.2-.2-.4.5-.1.9-.3,1.4-.4-.6-.8-.4-2,0-2.2.9-.7.8-1.5.9-2.4,0-.9.2-1.9.3-2.8.2.4.3.8.4,1.2.5,1.7.3,3.5,1.9,4.8.2.2.2.4,0,.6-.7.8-.6,1.3.4,1.8.4.2,1,0,1.3.6-.2.4-.6.2-.9.3-.5,0-1.3,0-1.3.4,0,.7,0,1.5.9,1.9,1.6.7,3.2,1.1,4.8.4.6-.2,1.5-.1,1.5-.9,0-.8-.9-.4-1.4-.7,0,0,0-.1,0-.2.6-.3,1.1-.5,1.7-.8.4-.2.7-.7.2-.9-.8-.4-1.9-1-2.5-.9-1.3.2-1.4-.7-2.1-1.3,1.5-.5,3-.2,4.3-.9-1.3-.7-2.4-1.3-3.5-2v-.3c1.7.6,3-.4,4.6-1.5-1.2,0-2.1-.2-2.3-1.2.7-.2,1.4,0,2.1-.4.3-.2.7-.4.6-.8-.1-.4-.6-.2-.8-.2-1,0-2,.1-2.2-1.3.4,0,.8,0,1.2-.2,1.5-.3,1.7-.8,1-2,.3,0,.6-.2.9-.3.3,0,.7,0,.7-.5,0-.4-.4-.5-.7-.6-.2,0-.3,0-.5-.2-.3,0-.7-.1-.6-.5,0-.3.4-.3.6-.4.4-.2,2,.2.7-1.1s0-.4.3-.5c.2-.1.5-.3.3-.6-.7-.7-.2-1,.4-1.4.6-.3.6-.9.7-1.5,0-1.1.2-2.1.3-3.2,0-.2,0-.4.4-.4.2,0,.3.2.3.4.2.7.2,1.5.5,2.2.4,1.4.5,2.9,1.9,3.8.5.3.3.8-.3,1-.7.2-.5.7-.3,1.1.3.7.8,1,1.5,1.2.4.1.9,0,1.2.7-.7.3-1.4.2-2.1.3-.3,0-.8,0-.7.6.3,1.2.5,2.5,2.2,2.4.3,0,.4.1.6.4.5.6.9.4,1.3-.2.8-1.1,1.6-2.2,2.4-3.3.4-.6.8-.7,1.5-.6,1.2.3,2.3.4,3.5.7.8.2,1.5,0,2-.6.6-.7,1.4-1.1,2.4-1.1s1.2-.4,1.7-1c1.2-1.9,2.5-3.8,3.7-5.7.6-.9,1.1-1.1,2.1-.9,1.4.4,2.8.6,4.3.3.8-.2,1.3.1,1.7.8,1.5,2.4,3,4.8,4.6,7.2.3.4.5.8,1,1,1.6.7,3.2,1.4,4.7,2.1,1.1.5,2.1.9,2.5-.8,0-.2.2-.4.4-.5,1.4-1,2.8-1.9,4.1-2.9.2-.1.5-.4.7-.2,1.1.7,2.6.8,3.1,2.2,1,3,2.9,5.1,5.8,6.5,0,0,0,0,0,0,1.8,1,3.3,2.2,3.9,4.3,0,.3.2.7.5.7,1.2-.1,2.5,0,3.7-.7-1.4-.5-2.3-1.4-3.5-1.9v-.2c2.2,0,3.3-.5,4.2-1.7-1.1.2-1.7-.2-2-1.2.8,0,1.7,0,2.3-.5.2-.2.5-.3.5-.7,0-.4-.5-.2-.7-.2-1,0-2,0-2.4-1.3.9-.1,1.8-.1,2.5-.7.2-.2.6-.5.3-.7-1.6-1,0-.9.4-1.1.2-.2.6-.1.6-.5s-.4-.5-.7-.6c-.4-.1-.9-.2-1.1-.6.3-.5.9-.4,1.3-.5.2,0,.6-.3.5-.4-.8-.6,0-1.3,0-1.4-.8-1,.2-1.3.7-1.8.4-.3.4-.8.4-1.3.2-1.7.3-3.4.5-5.4.5,2.1.7,4.1,1.3,5.9.3.8.5,1.7,1.4,2.2.6.3.6.8-.1,1.1-.8.3-.5.7-.3,1.1.3.7.9.9,1.5,1.1s.9,0,1,.7c-.7.3-1.5.2-2.2.3-.3,0-.6,0-.7.4,0,.8.8,2.3,1.6,2.5,1.4.4,2.7,1.2,4.6.7-1.1,1.1-2.4.6-3.3,1.1.6.6,1.3.3,1.9.5,0,.3-.2.5-.4.5-.8.1-1.6.6-2.5.5-.4,0-1-.1-1,.4,0,.5.6.5.9.6.5,0,1,.2,1.5.2-.5.7-1.2.5-1.7.7-.4,0-.8.1-.8.6,0,.4.5.3.8.4,1.8.5,3.6.8,5.6.6-.3.8-1,.9-1.5,1.2-.3.2-.8,0-.8.5,0,.4.4.6.7.8.6.5,1.5.3,2.1.7-.3.6-1.1.3-1.3.7-.5,1.8-1.4.5-2,.2-.5-.3-.8-.7-1.4-.9-.4,0-.8-.2-1,.1-.3.4.3.6.5.8.3.3.6.5.9.8-.6.3-1.3,0-2,.3,1.4,1.8,3.6,1.7,5.4,2.6-1.7.5-3.3,1.6-4.9.4-.2-.1-.5,0-.7.2-.2.3,0,.6.2.8,1.2,1.3,2.7,2.1,4.4,2.6.7.2,1.8,0,2.6-.6-1.1-.3-1.8-1-2.7-1.5,1.3,0,2.4-.6,3.3-1.3-.7,0-1.3-.3-1.5-1,.8-.3,1.9,0,2.2-1.1-1.4-.1-2.2-.5-2.5-1,2.2-.5,2.4-.7,1.7-1.7.3-.5,1.4,0,1.2-.9,0-.5-1.1-.3-1.4-.8,0,0,0-.1.2-.2.3-.4,1.7.1.9-1.1.8-.3-.2-1.2.4-1.5.9-.5.9-1.4,1-2.2,0-1.1,0-2.1.4-3.2,0,.5.2.9.3,1.4.5,1.7.3,3.6,1.9,4.9.2.2.1.4,0,.7-.7.8-.6,1.3.4,1.8.4.2,1,0,1.4.7-.7,0-1.2.1-1.8.2-.5,0-.7.2-.5.8.2.9.6,1.3,1.5,1.7,1,.4,2,.6,3.2.6-.8.7-1.7.4-2.5.7.4.6,1.1.2,1.5.6-.9.8-2.1.5-3.2.9.6.7,1.3.5,2,.7-.5.5-1,.4-1.5.6h0ZM72.3,47.8c.2,0,.4-.3.3-.5,0-.3-.4-.3-.6-.3-1.7,0-3.3.2-5,.5.4.8,1.2.6,1.9.8-.4.7-1.5,0-1.9,1,2.1.5,3.6-1,5.4-1.6h0ZM143.9,42.9c.3-.1.7-.3.6-.7,0-.4-.5-.6-.8-.6-.5,0-1,0-1.4-.6-.3-.4-.9-.2-1.2,0-.4.3,0,.6,0,.9.3.8.7,1.7,1.1,2.5.2.4.2,1,.8.8.4,0,.8-.2.7-.7,0-.7-.6-.5-1-.6-.2,0-.3-.1-.6-.3.6-.3,1.1-.5,1.6-.7h0ZM67.6,54.2c.3,1.7,2.3,1.5,3.5-.2-.5-.3-1.1-.4-1.5-.8s-1-.3-1.3,0c-.4.4.4.5.5.9h-1.2ZM68.3,56.9c-.3-.1-.7-.4-1,0s0,.3,0,.4c.2.4.4.7.9.7.6,0,1.1-.3,1.7-.4-.6-.2-1.1-.4-1.6-.7h0Z"/>
  <path class="cls-2" d="M181.6,107.5c.5-2.1,3.1-.7,3.7-2.4-1.2-.3-2.3-.2-3.3.8-.9.9-2.2,1.4-2.8,2.8-.4,1-1.2,2-1.8,2.9-.2.3-.9.6-.2,1,.7.4,1.8.2,1.9-.3,0-1.2,1-1.1,1.6-1.2,1.3-.3,2.5-2.3,2-3.4-.2-.6-.7,0-1.1-.3h0Z"/>
  <path class="cls-2" d="M34.8,107.1c0,.2.2.4.1.5-.8,1.2.6,1.7.8,2.5.1.7.9.6,1.5.7.6.2,1.1.2,1.4,1.1.3.9,1.4.4,2.2.3-2.4-1.9-2.8-5.2-5.4-6.9-1.2-.7-1.1-.8-2.6-.4.3.6.8.7,1.3.8.4,0,.7.2,1.1.2.6,0,1,.5.9,1-.1.7-.7,0-1.2.2h0Z"/>
  <path class="cls-2" d="M69.6,41.6c0,1.1-.7,1.4-1.6,1.5-.2,0-.5,0-.6.3,0,.3,0,.6.3.6,1.4-.2,2.6,1.3,4,.3,0,0,0,0,0,0-.5-.5-1.7-.6-1.5-1.3,0-.6,1.2-.3,1.9-.6,0,0,.1,0,.3-.2-.5-.7-1-1-1.8-.7-.4.1-.7.2-1.1.2h0Z"/>
  <path class="cls-2" d="M69.6,41.6c0-.7,0-1.2-.6-1.6-.3-.2-.4-.8-.8-.5-.3.2-.6.6-.7,1,0,.5.5.4.8.5.4.2.8.4,1.3.7h0Z"/>
  <path class="cls-2" d="M153.5,44c.9.4,1.5,1,2.2.4,0,0,.2-.4.2-.4-.7-.5-1.4,0-2.4,0h0Z"/>
  <path class="cls-1" d="M51.8,72.8c.5.2,1,.6,1.6.3,0,0,.2-.4,0-.4-.6-.5-1.1.3-1.7.2h0Z"/>
  <path class="cls-2" d="M153.1,47.9c.8.4,1.3,1,2.1,1-.6-.5-.9-1.4-2.1-1Z"/>
  <path class="cls-2" d="M57.6,63.5c0,0,.1,0,.2,0,0,0-.1-.1-.2-.1s-.1,0-.2,0c0,0,.1,0,.2,0h0Z"/>
  <path class="cls-2" d="M32.4,103.2c0-.2-.3-.3-.5-.3h0c.1.3.3.4.5.3h0Z"/>
  <path class="cls-2" d="M55.5,65.3c0,.1.3.3.4,0,0-.2-.1-.2-.3-.2,0,0,0,0,0,.1h0Z"/>
  <path class="cls-2" d="M32.4,103.2s0,0,.1.1h0c0,0,0,0,0,0h0Z"/>
  <path class="cls-2" d="M33.4,96.8s0,0,0,0h0s0,0-.1,0h0Z"/>
  <path class="cls-2" d="M184.5,96.8c.2,0,.3,0,.3-.3-.2,0-.3,0-.3.3Z"/>
  <path class="cls-1" d="M93.8,112c.4,0,.7.2,1.1.3.3,0,.7,0,.5-.4-.4-.8-.1-2.1-1.7-1.8.4-1,.7-2,1.2-2.8.4-.8-.3-1.2-.6-1.6-.5-.5-.7.2-1,.5-.8.7-1.1,1.9-2,2.6-.3-1-.6-2-.8-3.1-.3.3,0,.6-.4.7-.4-1.8-.4-1.9,1.4-1.9.7,0,1.4-.2,2-.6-.7-.5-.8-1,.2-1.5-.7-.1-1.2-.3-1.7-.3-1.1,0-1.1-.6-.7-1.3s.9-1.8,1.5-2.7c.7.8,1.1,1.6,1.4,2.5,0,.2.2.7.6.4.6-.5,1.2-1.3.7-1.9-.6-.7-.1-1.5-.7-2.1-.2-.2,0-.4.1-.5.9-.5,1.7-1,2.7-1.2.6-.1.8,0,.7.7-.1.9-.5,1.6-.9,2.4-.1.3-.7.6-.2.9.4.2.9.4,1.3-.2.6-.9,1.5-1.7,1.7-2.8.1-.7.5-.6,1-.4.9.4,1.4,1.2,2.4,1.6-1.6,1.1-3,2.2-4.9,2.9.9.6,1.8,1.1,2.8.6.8-.4,1.7-.8,2.6-1.2.3-.1.7-.6,1-.2.4.3.7.8.5,1.3-.2.4,0,.8,0,1.2.2.7,0,1-.8.9-1.2,0-2.3-.2-3.8,0,.9.2,1.6.3,1.3,1.3-.2.6.4.5.7.6.8.3,1.9,0,2.7.7-1,.6-1.2,1.5-1.8,2.2-.5.6-.9.7-1.5,0-.6-.7-1.3-1.3-2-1.9-.6-.5-1.1-.4-1.6.2-.6.6,0,.9.3,1.2,1,1,2,2,2.7,3.2.2.3.4.6,0,.8-.3.2-.7.6-.8.4-.2-.3-.5-.3-.7-.4-.8-.6-2-1.1-2.2-1.9-.4-1.3-1-1.8-2.3-1.6,0,.9.2,1.9.3,2.8,0,.8.6,2,0,2.3-.7.4-1.7-.4-2.4-.9,0,0,.1-.1.2-.2h0ZM97.7,102.9c.4,0,.6.4.8.7.4.9-.5,1.2-1,1.8.9.4,1.3,0,1.7-.6.5-.9.5-1.8-.3-2.6-.7-.7-1.5-.7-2.2,0-.7.5-1.1,1.2-.5,2.1.5-.7.7-1.5,1.6-1.4h0Z"/>
  <path class="cls-1" d="M103.9,109.6c.2-.2.3-.3.5-.5s.2-.4.5-.9c-.7.5-1,.8-.9,1.4Z"/>
  <path class="cls-1" d="M105,108h0s0,0,0,.1c0,0,0,0,0,0h0c0,0,0,0,0,0Z"/>
  <path class="cls-1" d="M93.8,112c0-.2-.3-.2-.5,0,0,0,.2.2.3.3,0,0,.1-.1.2-.2h0Z"/>
  <path class="cls-1" d="M100.5,112.3c0,0,0,.1,0,.2,0,0,.1-.1.2-.2,0,0,0,0,0-.1,0,0,0,0-.1.2h0Z"/>
  <path class="cls-1" d="M93.3,110.4c0,0,.2,0,.3,0,0,0,0,0,0,0l-.2.2h0Z"/>
  <path class="cls-1" d="M93.3,110.4c0,0,0,0-.2.1h0v-.2h0Z"/>
  <path class="cls-1" d="M84.3,62.7c1.1,0,2.2,0,3.4-.2,3.4-.2,6.9-.4,10.3-.7,3.5-.3,6.8-1.5,9.3-4.1.9-1,2-2,3-3,.5-.5.5-.7-.2-.8-4.3-1-8.7-1.7-13.2-1.1-.4,0-.8.1-1.2.4-4.2,2.6-7.8,6.1-11.4,9.6h0Z"/>
  <path class="cls-1" d="M169.4,105.6c.3.7,0,1.7.6,2.3s.6.6.9.4c.4-.2.1-.7,0-1-.4-.7-.7-1.4-1.3-1.9,0,0-.1.1-.2.2h0Z"/>
  <path class="cls-1" d="M127.5,55.8c-1.7.2-3.3.4-5,.7-1.1.2-.6,1-.6,1.6,0,.6.2.8.7.8h.8c1.1.2,2,.2,2.3-1.2.2-.8,1.1-1.1,1.7-1.9h0Z"/>
  <path class="cls-1" d="M141.7,54.6c1.8,1.5,1.9,3.7,3.6,4.9.8.6,1.1,1.6,1.4,2.6.1.5.3.8.9.7.6,0,.8-.3,1-.8.9-2.6.4-5-.9-7.3-.2-.3-.3-.6-.7-.5-1.6.1-3.3.3-5.3.4h0Z"/>
  <path class="cls-1" d="M108.8,64.1c1.8.2,3.6.3,5.4.5.6,0,1,0,1.3-.6,1.4-2.2,1.9-4.7,1.7-7.3,0-.3.1-.6-.3-.7-.2,0-.4,0-.5.2-2.5,2.6-5,5.2-7.6,7.9h0Z"/>
  <path class="cls-1" d="M104.7,62.9h0c0,0,0,0,0,0,0,0,0-.1,0-.2,0,0,0,0,0,0h0Z"/>
  <path class="cls-1" d="M156.5,63.9c-.5-1.1-.9-2-1.4-3-.5.7-.6,1.5-.8,2.2-.1.4.2.5.5.5.5,0,1,.2,1.8.3h0Z"/>
  <path class="cls-3" d="M67,49.4c2.1.5,3.6-1,5.4-1.6.2,0,.4-.3.3-.5,0-.3-.4-.3-.6-.3-1.7,0-3.3.2-5,.5.4.8,1.2.6,1.9.8-.4.7-1.5,0-1.9,1h0Z"/>
  <path class="cls-3" d="M142.3,43.7c.6-.3,1.1-.5,1.6-.7.3-.1.7-.3.6-.7,0-.4-.5-.6-.8-.6-.5,0-1,0-1.4-.6-.3-.4-.9-.2-1.2,0-.4.3,0,.6,0,.9.3.8.7,1.7,1.1,2.5.2.4.2,1,.8.8.4,0,.8-.2.7-.7,0-.7-.6-.5-1-.6-.2,0-.3-.1-.6-.3h0Z"/>
  <path class="cls-3" d="M68.8,54.2h-1.2c.3,1.7,2.3,1.5,3.5-.2-.5-.3-1.1-.4-1.5-.8s-1-.3-1.3,0c-.4.4.4.5.5.9h0Z"/>
  <path class="cls-3" d="M69.9,57.6c-.6-.2-1.1-.4-1.6-.7-.3-.1-.7-.4-1,0s0,.3,0,.4c.2.4.4.7.9.7.6,0,1.1-.3,1.7-.4h0Z"/>
  <path class="cls-3" d="M96.1,104.3c.5-.7.7-1.5,1.6-1.4.4,0,.6.4.8.7.4.9-.5,1.2-1,1.8.9.4,1.3,0,1.7-.6.5-.9.5-1.8-.3-2.6-.7-.7-1.5-.7-2.2,0-.7.5-1.1,1.2-.5,2.1h0Z"/>
</svg>